{"glyphs":{"0":{"ha":744,"x_min":33,"x_max":711,"o":"m 381 -1 q 274 10 322 -1 q 190 44 225 22 q 127 101 154 67 q 82 175 100 135 q 53 267 64 215 q 38 375 43 319 q 33 497 33 431 q 106 876 33 756 q 354 996 179 996 q 526 961 456 996 q 637 858 597 926 q 694 701 676 789 q 711 497 711 614 q 702 338 711 408 q 670 201 693 267 q 611 92 647 136 q 517 24 575 49 q 381 -1 458 -1 m 299 492 q 310 313 296 376 q 372 249 325 249 q 435 318 421 249 q 444 504 450 388 q 442 555 443 533 q 438 602 440 576 q 431 647 435 628 q 422 684 428 665 q 408 715 415 703 q 391 733 401 726 q 368 740 381 740 q 341 732 353 740 q 322 705 329 724 q 310 668 314 686 q 303 617 306 650 q 299 558 300 583 q 299 492 299 533 z "},"1":{"ha":572,"x_min":74,"x_max":540,"o":"m 272 21 q 265 693 263 326 q 167 621 221 646 q 115 709 144 651 q 75 808 86 767 q 107 832 83 815 q 148 860 131 849 q 192 890 165 872 q 242 922 219 908 q 292 948 265 935 q 342 969 319 961 q 525 969 432 975 q 524 21 540 683 q 272 21 403 3 z "},"2":{"ha":701,"x_min":28,"x_max":686,"o":"m 653 250 q 653 21 685 149 q 42 21 390 3 q 38 46 40 31 q 33 106 36 61 q 35 183 31 151 q 120 256 79 219 q 215 348 161 292 q 308 456 269 404 q 374 571 346 508 q 401 689 401 633 q 349 767 401 767 q 283 701 304 767 q 265 539 263 635 q 29 599 144 525 q 122 890 29 788 q 361 993 214 993 q 502 969 443 993 q 594 902 561 944 q 641 809 626 860 q 656 699 656 758 q 644 590 656 643 q 610 494 632 538 q 561 414 589 451 q 499 346 533 376 q 432 292 465 315 q 364 250 399 269 q 501 256 438 256 q 610 253 565 256 l 653 250 z "},"3":{"ha":679,"x_min":24,"x_max":646,"o":"m 331 196 q 381 285 381 196 q 342 373 381 344 q 242 396 304 401 q 229 486 231 431 q 242 567 228 542 q 269 569 250 568 q 295 572 288 571 q 319 577 303 574 q 342 585 335 581 q 360 600 350 590 q 376 623 371 610 q 385 656 381 636 q 389 701 389 676 q 318 806 389 806 q 233 614 228 806 q 29 656 125 603 q 108 903 24 811 q 336 994 193 994 q 506 959 435 994 q 610 863 576 924 q 644 725 644 803 q 472 488 644 542 q 636 267 636 435 q 550 72 636 146 q 322 -1 464 -1 q 26 225 83 -1 q 218 325 153 321 q 331 196 258 196 z "},"4":{"ha":740,"x_min":75,"x_max":708,"o":"m 436 267 q 194 267 322 258 q 118 370 153 307 q 75 496 83 433 q 151 623 83 529 q 310 823 219 717 q 472 994 401 929 q 591 969 525 986 q 693 938 657 953 q 693 22 708 661 q 440 22 588 -1 q 436 267 438 111 m 435 708 q 276 490 347 575 q 435 490 374 494 q 435 708 433 601 z "},"5":{"ha":679,"x_min":32,"x_max":646,"o":"m 617 742 q 569 739 599 740 q 455 736 540 738 q 314 742 369 735 q 312 700 313 726 q 310 649 311 674 q 308 614 308 625 q 341 642 321 629 q 383 660 361 654 q 426 667 406 667 q 526 640 483 667 q 595 565 569 613 q 633 461 621 518 q 646 339 646 404 q 631 210 646 268 q 583 103 615 153 q 492 26 551 54 q 351 -1 432 -1 q 185 31 254 -1 q 76 136 117 64 q 32 318 36 208 q 268 379 151 385 q 297 264 275 303 q 351 225 319 225 q 404 303 404 225 q 325 532 404 532 q 285 493 297 532 q 172 485 247 485 q 67 492 96 486 q 57 662 58 544 q 60 874 56 779 q 71 971 65 968 q 617 971 460 989 q 617 742 636 906 z "},"6":{"ha":672,"x_min":28,"x_max":642,"o":"m 576 767 q 406 707 476 754 q 303 592 335 660 q 435 642 358 642 q 585 576 531 642 q 640 383 640 511 q 560 98 640 197 q 325 -1 479 -1 q 108 99 188 -1 q 29 383 29 200 q 59 603 29 500 q 147 788 89 706 q 298 925 204 871 q 511 993 392 979 q 567 899 546 981 q 576 767 589 817 m 350 551 q 299 508 317 551 q 281 407 281 464 q 293 260 281 313 q 342 208 306 208 q 374 224 361 208 q 392 269 386 239 q 399 324 397 299 q 400 388 400 350 q 395 483 400 449 q 380 535 390 518 q 350 551 369 551 z "},"7":{"ha":683,"x_min":-8,"x_max":608,"o":"m 32 969 q 163 979 32 975 q 433 981 293 983 q 593 969 572 979 q 608 850 607 942 q 593 689 608 758 q 510 570 551 639 q 431 414 469 501 q 369 222 392 326 q 353 21 347 118 q 88 21 250 14 q 99 230 79 126 q 154 411 119 333 q 224 553 189 489 q 288 669 260 618 q 318 746 315 719 l 32 746 q 32 969 -7 894 z "},"8":{"ha":713,"x_min":31,"x_max":682,"o":"m 510 536 q 682 272 682 469 q 597 65 682 132 q 361 -1 511 -1 q 115 74 199 -1 q 31 272 31 149 q 69 434 31 371 q 186 535 107 497 q 63 729 63 596 q 87 860 63 806 q 154 942 111 914 q 245 983 197 971 q 351 996 293 996 q 570 930 490 996 q 650 729 650 864 q 510 536 650 597 m 306 699 q 305 681 306 694 q 304 660 304 667 q 305 642 304 654 q 307 622 306 629 q 310 605 308 615 q 317 589 313 594 q 326 578 321 583 q 338 569 331 572 q 356 567 346 567 q 375 569 367 567 q 389 578 383 572 q 398 592 394 585 q 403 609 401 599 q 407 628 406 619 q 408 649 408 636 q 408 669 408 663 q 406 690 407 676 q 406 710 406 704 q 356 811 400 811 q 306 699 307 811 m 356 214 q 431 343 428 214 q 415 433 432 396 q 356 469 397 469 q 309 447 326 469 q 287 395 292 424 q 283 331 282 367 q 303 250 286 286 q 356 214 321 214 z "},"9":{"ha":676,"x_min":33,"x_max":646,"o":"m 243 358 q 128 391 175 358 q 57 485 81 424 q 33 636 33 547 q 332 994 33 994 q 494 953 425 994 q 604 826 564 911 q 644 621 644 742 q 519 172 644 331 q 117 -1 394 14 q 56 108 72 25 q 68 225 40 190 q 265 281 188 232 q 375 406 343 329 q 243 358 319 358 m 332 783 q 300 768 313 783 q 282 723 288 753 q 275 667 276 693 q 274 604 274 642 q 284 485 274 517 q 324 454 294 454 q 375 497 357 454 q 393 597 393 540 q 381 734 393 685 q 332 783 368 783 z "},"\u0000":{"ha":0,"x_min":0,"x_max":0,"o":""},"\n":{"ha":0,"x_min":0,"x_max":0,"o":""},"\r":{"ha":0,"x_min":0,"x_max":0,"o":""}," ":{"ha":296,"x_min":0,"x_max":0,"o":""},"!":{"ha":374,"x_min":31,"x_max":342,"o":"m 174 268 q 282 231 250 268 q 314 142 314 194 q 283 53 314 88 q 179 18 251 18 q 72 54 103 18 q 42 142 42 90 q 73 233 42 197 q 174 268 104 268 m 274 311 q 78 311 176 299 q 38 989 31 771 q 340 989 190 1046 q 274 311 325 619 z "},"#":{"ha":956,"x_min":17,"x_max":936,"o":"m 929 582 q 758 579 854 581 q 729 450 744 514 q 858 446 801 449 q 858 267 865 371 q 686 263 783 264 q 632 40 658 149 q 442 40 513 33 q 488 261 463 146 q 367 261 428 261 q 314 40 340 147 q 125 40 253 33 q 171 264 147 149 q 28 267 93 264 q 28 446 17 325 q 213 450 108 449 q 242 579 226 514 q 97 582 163 581 q 97 763 88 640 q 285 767 179 765 q 339 989 311 881 q 528 989 442 1001 q 481 768 506 883 q 601 768 543 768 q 656 989 629 882 q 846 989 728 996 q 799 765 824 881 q 929 763 871 764 q 929 582 936 688 m 529 453 q 557 576 543 515 q 439 578 499 576 q 411 453 425 518 q 529 453 469 453 z "},"$":{"ha":800,"x_min":25,"x_max":776,"o":"m 339 739 q 369 681 339 710 q 444 630 399 653 q 541 575 489 607 q 638 509 593 543 q 712 421 682 475 q 742 303 742 367 q 712 164 742 222 q 633 74 682 106 q 515 28 583 42 l 532 -78 q 401 -100 467 -100 q 269 -78 335 -100 l 286 28 q 131 100 196 46 q 25 256 67 154 q 290 386 129 350 q 396 282 329 282 q 438 319 438 282 q 421 356 438 338 q 376 388 404 374 q 314 421 349 403 q 242 457 279 439 q 171 501 206 475 q 108 558 136 528 q 64 631 81 588 q 47 725 47 675 q 109 910 47 836 q 286 1006 171 983 l 269 1099 q 532 1099 400 1140 l 515 1004 q 635 955 585 989 q 721 860 685 921 q 776 710 757 799 q 671 653 744 674 q 508 631 597 633 q 465 744 497 703 q 393 786 432 786 q 353 774 367 786 q 339 739 339 761 z "},"&":{"ha":950,"x_min":17,"x_max":875,"o":"m 738 238 q 875 40 825 122 q 636 40 757 3 q 583 108 615 69 q 313 18 444 18 q 100 94 183 18 q 17 299 17 169 q 221 626 17 519 q 189 767 189 704 q 265 952 189 892 q 458 1013 340 1013 q 658 947 588 1013 q 747 721 728 881 q 532 679 672 676 q 518 789 539 747 q 461 831 497 831 q 435 824 447 831 q 416 801 424 818 q 408 761 408 785 q 458 617 408 700 q 601 413 507 535 q 653 472 628 442 q 692 519 679 503 l 704 536 q 864 388 803 494 q 738 238 817 317 m 354 257 q 443 283 394 257 q 311 464 361 389 q 253 349 253 421 q 354 257 253 257 z "},"(":{"ha":389,"x_min":32,"x_max":589,"o":"m 282 453 q 293 250 282 346 q 328 69 304 154 q 388 -77 353 -15 q 474 -174 422 -139 q 589 -210 526 -210 q 560 -273 583 -239 q 508 -315 536 -307 q 378 -287 443 -317 q 251 -193 313 -257 q 143 -39 190 -129 q 67 178 96 51 q 35 451 38 304 q 58 742 32 607 q 129 974 83 878 q 236 1138 175 1069 q 367 1240 297 1207 q 508 1271 436 1272 q 560 1229 536 1263 q 589 1167 583 1196 q 451 1105 511 1167 q 354 940 390 1043 q 300 712 318 836 q 282 453 282 588 z "},")":{"ha":389,"x_min":-200,"x_max":357,"o":"m -121 1271 q 22 1240 -49 1272 q 153 1138 92 1207 q 260 974 214 1069 q 331 742 306 878 q 354 451 356 607 q 322 178 351 304 q 245 -39 293 51 q 137 -193 197 -129 q 10 -287 76 -257 q -121 -315 -56 -317 q -171 -273 -147 -307 q -200 -210 -194 -239 q -62 -156 -122 -210 q 34 -9 -1 -103 q 88 201 69 85 q 106 453 106 318 q 88 712 106 588 q 34 940 69 836 q -62 1105 -1 1043 q -200 1167 -122 1167 q -171 1229 -194 1196 q -121 1271 -147 1263 z "},"*":{"ha":392,"x_min":8,"x_max":379,"o":"m 357 1003 q 357 872 379 938 l 242 911 l 332 831 q 218 767 289 783 l 197 883 l 176 767 q 63 831 100 783 l 153 911 l 39 872 q 39 1003 8 939 l 153 964 l 63 1044 q 176 1108 100 1092 l 197 992 l 218 1108 q 332 1044 289 1097 l 242 965 l 357 1003 z "},"+":{"ha":557,"x_min":17,"x_max":536,"o":"m 528 493 q 528 331 535 417 q 363 326 451 328 q 360 161 361 233 q 197 161 283 154 q 194 326 194 238 q 33 331 114 328 q 33 493 18 418 q 194 494 106 494 q 197 656 196 574 q 360 656 286 672 q 363 494 361 585 q 528 493 456 494 z "},",":{"ha":339,"x_min":26,"x_max":311,"o":"m 168 285 q 278 238 246 285 q 311 118 311 190 q 294 31 311 76 q 251 -49 276 -14 q 202 -114 226 -85 q 161 -158 178 -143 l 143 -174 q 60 -119 79 -167 l 92 25 q 26 140 26 65 q 65 243 26 201 q 168 285 103 285 z "},"-":{"ha":492,"x_min":19,"x_max":468,"o":"m 463 501 q 463 322 468 417 q 33 322 288 314 q 33 501 19 419 q 463 501 257 507 z "},".":{"ha":338,"x_min":26,"x_max":311,"o":"m 164 285 q 278 245 244 285 q 311 150 311 206 q 278 56 311 93 q 169 18 244 18 q 58 56 90 18 q 26 150 26 94 q 38 216 26 188 q 82 265 50 244 q 164 285 114 285 z "},"/":{"ha":729,"x_min":75,"x_max":654,"o":"m 481 1211 q 654 1156 600 1182 q 249 -136 457 490 q 75 -78 149 -119 q 481 1211 293 661 z "},":":{"ha":349,"x_min":32,"x_max":317,"o":"m 175 486 q 103 498 133 486 q 59 530 74 510 q 38 572 44 550 q 32 618 32 593 q 65 715 32 676 q 169 754 97 754 q 283 714 250 754 q 317 618 317 674 q 283 524 317 561 q 175 486 250 486 m 169 285 q 283 245 250 285 q 317 150 317 206 q 283 56 317 93 q 175 18 250 18 q 64 56 96 18 q 32 150 32 94 q 44 216 32 188 q 88 265 56 244 q 169 285 119 285 z "},";":{"ha":349,"x_min":32,"x_max":317,"o":"m 175 486 q 103 498 133 486 q 59 530 74 510 q 38 572 44 550 q 32 618 32 593 q 65 715 32 676 q 169 754 97 754 q 283 714 250 754 q 317 618 317 674 q 283 524 317 561 q 175 486 250 486 m 174 285 q 243 271 214 285 q 288 232 272 257 q 310 179 303 207 q 317 118 317 151 q 299 31 317 76 q 257 -49 282 -14 q 208 -114 232 -85 q 167 -158 183 -143 l 149 -174 q 65 -119 78 -153 l 97 25 q 32 140 32 65 q 70 243 32 201 q 174 285 108 285 z "},"<":{"ha":585,"x_min":13,"x_max":560,"o":"m 210 393 q 558 190 310 344 q 500 13 547 129 q 22 300 238 156 q 22 486 14 401 q 486 774 224 626 q 546 596 538 639 q 210 393 361 475 z "},">":{"ha":585,"x_min":25,"x_max":571,"o":"m 561 486 q 561 300 571 401 q 85 13 347 156 q 25 190 36 129 q 374 393 275 344 q 39 596 222 475 q 97 774 47 640 q 561 486 361 626 z "},"?":{"ha":686,"x_min":7,"x_max":611,"o":"m 325 800 q 242 736 271 800 q 218 575 213 672 q 19 626 79 574 q 92 915 8 817 q 322 1013 175 1013 q 451 992 394 1013 q 541 935 507 971 q 593 853 575 899 q 611 754 611 807 q 590 644 611 692 q 538 563 569 596 q 472 497 506 529 q 410 415 439 464 q 371 307 381 367 q 163 313 264 283 q 188 442 165 381 q 240 544 210 503 q 301 622 271 586 q 353 689 332 657 q 374 749 374 721 q 325 800 374 800 m 256 268 q 364 231 332 268 q 396 142 396 194 q 364 53 396 88 q 260 18 332 18 q 154 54 185 18 q 124 142 124 90 q 155 233 124 197 q 256 268 186 268 z "},"@":{"ha":1276,"x_min":29,"x_max":1247,"o":"m 615 989 q 853 955 746 989 q 1033 865 961 921 q 1153 735 1104 810 q 1225 583 1203 661 q 1247 425 1247 506 q 1230 237 1247 324 q 1177 80 1213 150 q 1082 -31 1142 10 q 943 -71 1022 -71 q 849 -57 890 -71 q 785 -22 808 -43 q 745 26 761 -1 q 723 78 729 54 q 715 124 717 101 q 710 193 713 167 q 635 128 683 154 q 531 103 586 103 q 451 118 485 103 q 401 158 418 133 q 376 209 383 182 q 368 265 368 236 q 425 410 368 353 q 565 467 482 467 q 683 446 615 467 q 597 515 672 515 q 406 471 494 515 q 372 676 353 574 q 410 689 386 681 q 508 710 435 697 q 651 724 581 724 q 767 703 717 724 q 845 650 817 683 q 888 580 874 617 q 906 500 903 543 q 910 381 910 435 q 910 276 911 326 q 910 203 910 226 q 958 111 911 111 q 981 119 969 111 q 1003 146 992 126 q 1024 195 1015 165 q 1037 276 1032 225 q 1042 390 1042 326 q 923 681 1042 565 q 621 797 804 797 q 410 745 499 797 q 281 609 322 693 q 239 422 239 525 q 306 158 239 253 q 533 7 374 64 q 477 -94 515 -54 q 396 -140 439 -133 q 126 51 224 -86 q 29 393 29 189 q 50 569 29 483 q 117 731 71 654 q 231 865 164 808 q 397 956 297 922 q 615 989 496 989 m 663 243 q 690 286 682 243 q 692 369 697 329 l 692 369 q 668 379 685 379 q 643 296 643 379 q 647 254 643 265 q 663 243 650 243 z "},"A":{"ha":782,"x_min":-6,"x_max":788,"o":"m 261 206 q 217 18 240 115 q -6 18 135 7 q 226 958 149 765 q 560 958 471 992 q 786 13 688 547 q 503 13 669 0 q 454 206 482 64 q 261 206 346 203 m 418 397 q 365 685 372 649 q 306 397 340 557 q 418 397 363 399 z "},"À":{"ha":782,"x_min":-6,"x_max":788,"o":"m 261 206 q 217 18 240 115 q -6 18 135 7 q 226 958 149 765 q 560 958 471 992 q 786 13 688 547 q 503 13 669 0 q 454 206 482 64 q 261 206 346 203 m 418 397 q 365 685 372 649 q 306 397 340 557 q 418 397 363 399 z "},"Á":{"ha":782,"x_min":-6,"x_max":788,"o":"m 261 206 q 217 18 240 115 q -6 18 135 7 q 226 958 149 765 q 560 958 471 992 q 786 13 688 547 q 503 13 669 0 q 454 206 482 64 q 261 206 346 203 m 418 397 q 365 685 372 649 q 306 397 340 557 q 418 397 363 399 z "},"Â":{"ha":782,"x_min":-6,"x_max":788,"o":"m 261 206 q 217 18 240 115 q -6 18 135 7 q 226 958 149 765 q 560 958 471 992 q 786 13 688 547 q 503 13 669 0 q 454 206 482 64 q 261 206 346 203 m 418 397 q 365 685 372 649 q 306 397 340 557 q 418 397 363 399 z "},"Ã":{"ha":782,"x_min":-6,"x_max":788,"o":"m 261 206 q 217 18 240 115 q -6 18 135 7 q 226 958 149 765 q 560 958 471 992 q 786 13 688 547 q 503 13 669 0 q 454 206 482 64 q 261 206 346 203 m 418 397 q 365 685 372 649 q 306 397 340 557 q 418 397 363 399 z "},"Ä":{"ha":782,"x_min":-6,"x_max":788,"o":"m 261 206 q 217 18 240 115 q -6 18 135 7 q 226 958 149 765 q 560 958 471 992 q 786 13 688 547 q 503 13 669 0 q 454 206 482 64 q 261 206 346 203 m 418 397 q 365 685 372 649 q 306 397 340 557 q 418 397 363 399 z "},"Å":{"ha":782,"x_min":-6,"x_max":788,"o":"m 261 206 q 217 18 240 115 q -6 18 135 7 q 226 958 149 765 q 560 958 471 992 q 786 13 688 547 q 503 13 669 0 q 454 206 482 64 q 261 206 346 203 m 418 397 q 365 685 372 649 q 306 397 340 557 q 418 397 363 399 z "},"B":{"ha":703,"x_min":33,"x_max":692,"o":"m 213 13 q 51 19 113 13 q 36 476 39 153 q 40 958 33 800 l 246 963 q 323 960 286 963 q 406 952 360 958 q 491 935 453 946 q 567 904 529 924 q 632 858 606 885 q 674 794 658 832 q 690 708 690 756 q 678 627 690 667 q 642 553 665 588 q 577 495 618 518 q 485 469 536 472 q 615 397 568 460 q 663 258 663 335 q 628 144 663 193 q 531 67 593 96 q 389 26 468 39 q 213 13 310 13 m 314 204 q 320 205 317 204 q 334 209 324 206 q 353 217 344 213 q 374 230 363 221 q 394 249 386 239 q 408 276 401 260 q 414 310 414 292 q 403 354 414 336 q 378 378 393 372 q 349 388 364 385 q 324 389 335 390 l 314 388 q 314 204 303 271 m 310 771 q 310 536 304 597 q 322 536 314 536 q 349 542 329 536 q 383 561 368 549 q 409 601 397 574 q 421 667 421 628 q 410 723 421 700 q 382 755 399 746 q 349 768 365 764 q 321 772 332 772 l 310 771 z "},"C":{"ha":769,"x_min":15,"x_max":764,"o":"m 400 -12 q 117 109 218 -12 q 15 486 15 231 q 113 863 15 740 q 411 985 210 985 q 544 963 485 985 q 652 896 604 942 q 729 772 700 850 q 763 589 758 694 q 481 517 683 549 q 459 651 476 611 q 396 690 442 690 q 325 645 343 690 q 304 497 307 600 q 406 272 296 272 q 462 294 442 272 q 493 354 482 317 q 739 249 633 318 q 631 57 717 126 q 400 -12 546 -12 z "},"Ç":{"ha":769,"x_min":15,"x_max":764,"o":"m 400 -12 q 117 109 218 -12 q 15 486 15 231 q 113 863 15 740 q 411 985 210 985 q 544 963 485 985 q 652 896 604 942 q 729 772 700 850 q 763 589 758 694 q 481 517 683 549 q 459 651 476 611 q 396 690 442 690 q 325 645 343 690 q 304 497 307 600 q 406 272 296 272 q 462 294 442 272 q 493 354 482 317 q 739 249 633 318 q 631 57 717 126 q 400 -12 546 -12 z "},"D":{"ha":750,"x_min":21,"x_max":735,"o":"m 733 529 q 710 313 733 408 q 637 144 686 217 q 505 33 588 72 q 310 -6 422 -6 q 205 1 269 -6 q 96 14 140 8 l 51 21 q 51 967 21 397 q 344 993 217 993 q 477 979 418 993 q 585 932 536 965 q 666 846 633 899 q 716 713 699 793 q 733 529 733 633 m 317 725 q 317 297 332 447 q 408 319 371 286 q 461 406 446 351 q 476 526 476 460 q 437 691 476 638 q 317 725 397 744 z "},"E":{"ha":594,"x_min":33,"x_max":588,"o":"m 54 13 q 37 474 39 213 q 40 958 35 735 q 579 958 274 972 q 579 722 586 817 q 306 722 471 713 l 306 604 q 506 604 374 610 l 506 414 q 436 409 488 413 q 366 406 385 406 q 306 406 347 406 q 307 367 307 381 q 306 321 307 354 q 306 263 306 288 q 528 249 446 263 q 528 13 533 119 q 54 13 321 3 z "},"È":{"ha":594,"x_min":33,"x_max":588,"o":"m 54 13 q 37 474 39 213 q 40 958 35 735 q 579 958 274 972 q 579 722 586 817 q 306 722 471 713 l 306 604 q 506 604 374 610 l 506 414 q 436 409 488 413 q 366 406 385 406 q 306 406 347 406 q 307 367 307 381 q 306 321 307 354 q 306 263 306 288 q 528 249 446 263 q 528 13 533 119 q 54 13 321 3 z "},"É":{"ha":594,"x_min":33,"x_max":588,"o":"m 54 13 q 37 474 39 213 q 40 958 35 735 q 579 958 274 972 q 579 722 586 817 q 306 722 471 713 l 306 604 q 506 604 374 610 l 506 414 q 436 409 488 413 q 366 406 385 406 q 306 406 347 406 q 307 367 307 381 q 306 321 307 354 q 306 263 306 288 q 528 249 446 263 q 528 13 533 119 q 54 13 321 3 z "},"Ê":{"ha":594,"x_min":33,"x_max":588,"o":"m 54 13 q 37 474 39 213 q 40 958 35 735 q 579 958 274 972 q 579 722 586 817 q 306 722 471 713 l 306 604 q 506 604 374 610 l 506 414 q 436 409 488 413 q 366 406 385 406 q 306 406 347 406 q 307 367 307 381 q 306 321 307 354 q 306 263 306 288 q 528 249 446 263 q 528 13 533 119 q 54 13 321 3 z "},"Ë":{"ha":594,"x_min":33,"x_max":588,"o":"m 54 13 q 37 474 39 213 q 40 958 35 735 q 579 958 274 972 q 579 722 586 817 q 306 722 471 713 l 306 604 q 506 604 374 610 l 506 414 q 436 409 488 413 q 366 406 385 406 q 306 406 347 406 q 307 367 307 381 q 306 321 307 354 q 306 263 306 288 q 528 249 446 263 q 528 13 533 119 q 54 13 321 3 z "},"F":{"ha":574,"x_min":29,"x_max":571,"o":"m 297 13 q 46 13 218 3 q 46 958 29 463 q 564 958 397 969 q 564 722 571 857 q 311 722 449 715 q 311 585 317 647 l 513 585 q 513 369 521 446 q 311 361 433 358 q 311 236 311 263 q 304 119 311 210 q 297 13 297 29 z "},"G":{"ha":819,"x_min":15,"x_max":803,"o":"m 325 -14 q 15 485 15 -14 q 130 857 15 729 q 429 985 244 985 q 515 980 478 985 q 590 964 551 975 q 659 931 629 953 q 717 878 689 910 q 765 797 744 846 q 803 686 786 749 q 503 585 682 633 q 411 689 496 689 q 331 642 354 689 q 304 496 307 594 q 306 405 301 443 q 322 336 310 367 q 360 290 335 306 q 421 274 385 274 q 471 284 447 274 q 511 314 494 294 q 533 357 528 333 l 414 364 q 418 519 407 433 q 778 519 599 529 q 778 13 786 389 q 629 13 708 1 q 561 253 597 99 q 553 176 561 213 q 528 105 546 140 q 485 44 511 69 q 418 2 460 18 q 325 -14 376 -14 z "},"H":{"ha":786,"x_min":25,"x_max":760,"o":"m 313 13 q 47 13 163 3 q 47 958 25 510 q 313 958 193 971 q 322 588 321 796 q 464 588 399 589 q 474 958 465 799 q 739 958 660 971 q 739 13 760 767 q 474 13 651 3 q 467 361 469 186 q 321 361 394 360 q 313 13 318 189 z "},"I":{"ha":356,"x_min":31,"x_max":326,"o":"m 310 13 q 44 13 207 4 q 44 958 31 483 q 310 958 165 965 q 310 13 325 660 z "},"Ì":{"ha":356,"x_min":31,"x_max":326,"o":"m 310 13 q 44 13 207 4 q 44 958 31 483 q 310 958 165 965 q 310 13 325 660 z "},"Í":{"ha":356,"x_min":31,"x_max":326,"o":"m 310 13 q 44 13 207 4 q 44 958 31 483 q 310 958 165 965 q 310 13 325 660 z "},"Î":{"ha":356,"x_min":31,"x_max":326,"o":"m 310 13 q 44 13 207 4 q 44 958 31 483 q 310 958 165 965 q 310 13 325 660 z "},"Ï":{"ha":356,"x_min":31,"x_max":326,"o":"m 310 13 q 44 13 207 4 q 44 958 31 483 q 310 958 165 965 q 310 13 325 660 z "},"J":{"ha":535,"x_min":-17,"x_max":508,"o":"m 497 276 q 415 63 489 140 q 224 -14 342 -14 q 101 -3 165 -14 q -6 28 36 8 q 49 311 -15 168 q 153 282 104 282 q 177 284 167 282 q 196 292 188 286 q 210 304 204 299 q 219 322 215 310 q 224 344 222 335 q 228 372 226 353 q 230 401 229 390 q 231 437 231 413 q 232 475 231 461 q 233 649 233 528 q 233 864 233 769 l 232 958 q 497 958 363 968 q 497 276 507 446 z "},"K":{"ha":754,"x_min":29,"x_max":750,"o":"m 310 13 q 44 13 188 -19 q 44 958 31 526 q 310 958 196 968 q 319 592 319 810 q 387 663 358 617 q 428 759 415 710 q 449 853 442 808 q 457 929 456 899 l 457 958 q 590 972 526 971 q 692 958 654 972 q 692 938 692 951 q 692 887 693 925 q 688 812 692 849 q 670 726 683 775 q 638 638 657 678 q 583 559 618 597 q 503 497 549 521 q 619 415 569 474 q 692 290 668 357 q 730 159 715 222 q 746 54 744 96 l 749 13 q 449 13 624 -1 q 447 46 449 25 q 437 124 446 67 q 415 228 428 181 q 374 326 401 276 q 313 400 347 376 q 313 210 313 358 q 310 13 313 63 z "},"L":{"ha":546,"x_min":25,"x_max":561,"o":"m 544 13 q 47 13 346 3 q 47 958 26 303 q 311 958 201 971 q 321 269 329 588 q 544 269 458 275 q 544 13 560 150 z "},"M":{"ha":1086,"x_min":33,"x_max":1065,"o":"m 250 17 q 39 17 118 0 q 38 463 33 188 q 51 956 42 739 q 389 956 236 974 q 474 722 422 875 q 557 458 526 569 q 622 692 575 536 q 708 956 669 847 q 878 965 786 965 q 1029 956 969 965 q 1043 13 1065 475 q 761 17 929 4 q 753 506 747 192 l 631 46 q 396 46 494 32 l 253 513 q 253 299 251 415 q 255 120 256 183 q 250 17 254 57 z "},"N":{"ha":850,"x_min":25,"x_max":825,"o":"m 264 17 q 42 17 142 -6 q 53 956 25 526 q 369 956 219 965 q 439 816 399 903 q 519 628 479 729 q 581 453 560 526 q 585 958 575 699 q 804 958 703 976 q 793 13 824 446 q 631 6 724 6 q 483 13 538 6 q 268 483 414 135 q 267 316 267 401 q 267 183 267 231 q 266 91 267 136 q 264 17 265 46 z "},"Ñ":{"ha":850,"x_min":25,"x_max":825,"o":"m 264 17 q 42 17 142 -6 q 53 956 25 526 q 369 956 219 965 q 439 816 399 903 q 519 628 479 729 q 581 453 560 526 q 585 958 575 699 q 804 958 703 976 q 793 13 824 446 q 631 6 724 6 q 483 13 538 6 q 268 483 414 135 q 267 316 267 401 q 267 183 267 231 q 266 91 267 136 q 264 17 265 46 z "},"O":{"ha":889,"x_min":13,"x_max":876,"o":"m 456 -14 q 126 111 239 -14 q 13 485 13 236 q 124 853 13 722 q 426 983 236 983 q 753 856 629 983 q 876 485 876 728 q 763 118 876 250 q 456 -14 650 -14 m 294 475 q 333 312 292 374 q 451 250 374 250 q 569 319 529 250 q 600 492 608 389 q 579 600 596 553 q 526 681 563 647 q 438 715 490 715 q 356 679 389 715 q 310 592 324 643 q 294 475 297 542 z "},"Ò":{"ha":889,"x_min":13,"x_max":876,"o":"m 456 -14 q 126 111 239 -14 q 13 485 13 236 q 124 853 13 722 q 426 983 236 983 q 753 856 629 983 q 876 485 876 728 q 763 118 876 250 q 456 -14 650 -14 m 294 475 q 333 312 292 374 q 451 250 374 250 q 569 319 529 250 q 600 492 608 389 q 579 600 596 553 q 526 681 563 647 q 438 715 490 715 q 356 679 389 715 q 310 592 324 643 q 294 475 297 542 z "},"Ó":{"ha":889,"x_min":13,"x_max":876,"o":"m 456 -14 q 126 111 239 -14 q 13 485 13 236 q 124 853 13 722 q 426 983 236 983 q 753 856 629 983 q 876 485 876 728 q 763 118 876 250 q 456 -14 650 -14 m 294 475 q 333 312 292 374 q 451 250 374 250 q 569 319 529 250 q 600 492 608 389 q 579 600 596 553 q 526 681 563 647 q 438 715 490 715 q 356 679 389 715 q 310 592 324 643 q 294 475 297 542 z "},"Ô":{"ha":889,"x_min":13,"x_max":876,"o":"m 456 -14 q 126 111 239 -14 q 13 485 13 236 q 124 853 13 722 q 426 983 236 983 q 753 856 629 983 q 876 485 876 728 q 763 118 876 250 q 456 -14 650 -14 m 294 475 q 333 312 292 374 q 451 250 374 250 q 569 319 529 250 q 600 492 608 389 q 579 600 596 553 q 526 681 563 647 q 438 715 490 715 q 356 679 389 715 q 310 592 324 643 q 294 475 297 542 z "},"Õ":{"ha":889,"x_min":13,"x_max":876,"o":"m 456 -14 q 126 111 239 -14 q 13 485 13 236 q 124 853 13 722 q 426 983 236 983 q 753 856 629 983 q 876 485 876 728 q 763 118 876 250 q 456 -14 650 -14 m 294 475 q 333 312 292 374 q 451 250 374 250 q 569 319 529 250 q 600 492 608 389 q 579 600 596 553 q 526 681 563 647 q 438 715 490 715 q 356 679 389 715 q 310 592 324 643 q 294 475 297 542 z "},"Ö":{"ha":889,"x_min":13,"x_max":876,"o":"m 456 -14 q 126 111 239 -14 q 13 485 13 236 q 124 853 13 722 q 426 983 236 983 q 753 856 629 983 q 876 485 876 728 q 763 118 876 250 q 456 -14 650 -14 m 294 475 q 333 312 292 374 q 451 250 374 250 q 569 319 529 250 q 600 492 608 389 q 579 600 596 553 q 526 681 563 647 q 438 715 490 715 q 356 679 389 715 q 310 592 324 643 q 294 475 297 542 z "},"Ø":{"ha":889,"x_min":13,"x_max":876,"o":"m 456 -14 q 126 111 239 -14 q 13 485 13 236 q 124 853 13 722 q 426 983 236 983 q 753 856 629 983 q 876 485 876 728 q 763 118 876 250 q 456 -14 650 -14 m 294 475 q 333 312 292 374 q 451 250 374 250 q 569 319 529 250 q 600 492 608 389 q 579 600 596 553 q 526 681 563 647 q 438 715 490 715 q 356 679 389 715 q 310 592 324 643 q 294 475 297 542 z "},"P":{"ha":686,"x_min":31,"x_max":683,"o":"m 44 13 q 44 958 32 317 l 44 958 l 44 958 q 294 985 171 985 q 500 951 415 985 q 633 845 585 918 q 682 663 682 772 q 665 531 682 594 q 615 415 649 468 q 526 330 582 361 q 399 299 469 299 q 318 304 364 299 q 310 13 315 158 q 44 13 219 -15 m 443 647 q 431 706 443 681 q 399 742 418 731 q 362 761 381 754 q 331 769 343 768 l 317 771 l 321 526 q 362 524 340 521 q 401 535 383 526 q 431 572 419 543 q 443 647 443 601 z "},"Q":{"ha":888,"x_min":13,"x_max":875,"o":"m 289 -1 q 78 181 143 64 q 13 474 13 299 q 41 688 13 593 q 124 848 69 782 q 263 949 179 914 q 457 985 347 985 q 758 860 643 985 q 874 513 874 736 q 833 319 874 403 q 714 191 792 236 q 531 146 636 146 q 579 141 551 144 q 637 133 607 138 q 697 122 667 128 q 753 108 728 115 q 799 94 779 101 q 829 79 819 86 q 746 -144 819 -71 q 289 -1 444 -72 m 294 475 q 335 314 292 376 q 451 251 379 251 q 555 317 517 251 q 588 493 593 382 q 546 652 582 589 q 438 715 510 715 q 333 647 368 715 q 294 475 299 579 z "},"R":{"ha":746,"x_min":14,"x_max":732,"o":"m 54 13 q 54 958 15 481 l 54 958 l 54 958 q 318 985 194 985 q 616 912 526 985 q 706 685 706 839 q 660 553 706 610 q 544 471 615 496 q 685 335 638 443 q 732 13 732 228 q 438 13 576 -6 q 440 24 439 17 q 442 55 440 32 q 443 100 443 78 q 441 153 443 122 q 435 213 439 185 q 423 269 432 240 q 401 322 414 299 q 369 362 389 344 q 325 386 350 379 q 319 13 326 171 q 54 13 192 -12 m 325 771 q 324 644 324 725 q 325 522 325 582 q 401 552 365 517 q 436 643 436 588 q 430 690 436 669 q 414 724 424 711 q 392 747 404 738 q 369 761 381 757 q 347 768 357 765 q 331 771 338 771 l 325 771 z "},"S":{"ha":763,"x_min":6,"x_max":757,"o":"m 376 253 q 418 290 418 253 q 397 331 418 311 q 340 369 375 351 q 264 406 306 386 q 181 452 222 425 q 106 511 140 479 q 49 591 71 543 q 28 696 28 639 q 117 908 28 831 q 368 986 207 986 q 510 972 449 986 q 621 922 571 957 q 705 828 671 888 q 757 681 739 768 q 489 603 696 631 q 472 668 483 639 q 444 717 460 697 q 410 747 428 736 q 374 758 392 758 q 333 746 347 758 q 319 711 319 733 q 349 652 319 681 q 424 601 379 624 q 522 547 469 579 q 618 480 574 514 q 692 392 663 446 q 722 274 722 338 q 696 140 722 197 q 622 51 669 83 q 514 4 574 19 q 383 -11 454 -11 q 151 42 244 -11 q 6 226 58 94 q 271 357 138 325 q 376 253 310 253 z "},"T":{"ha":688,"x_min":-21,"x_max":708,"o":"m 206 714 q 3 717 108 704 q 3 958 -21 854 q 683 958 381 985 q 683 717 708 882 q 481 714 558 699 q 476 13 483 390 q 211 13 363 3 q 206 714 201 372 z "},"U":{"ha":831,"x_min":29,"x_max":804,"o":"m 432 -14 q 139 60 228 -14 q 38 301 50 133 q 31 531 32 367 q 32 826 31 694 l 33 958 q 321 958 207 976 q 328 390 324 525 q 421 274 333 274 q 507 407 504 274 l 507 958 q 794 958 682 978 q 797 841 796 910 q 801 590 799 772 q 796 351 803 407 q 697 73 783 160 q 432 -14 611 -14 z "},"Ù":{"ha":831,"x_min":29,"x_max":804,"o":"m 432 -14 q 139 60 228 -14 q 38 301 50 133 q 31 531 32 367 q 32 826 31 694 l 33 958 q 321 958 207 976 q 328 390 324 525 q 421 274 333 274 q 507 407 504 274 l 507 958 q 794 958 682 978 q 797 841 796 910 q 801 590 799 772 q 796 351 803 407 q 697 73 783 160 q 432 -14 611 -14 z "},"Ú":{"ha":831,"x_min":29,"x_max":804,"o":"m 432 -14 q 139 60 228 -14 q 38 301 50 133 q 31 531 32 367 q 32 826 31 694 l 33 958 q 321 958 207 976 q 328 390 324 525 q 421 274 333 274 q 507 407 504 274 l 507 958 q 794 958 682 978 q 797 841 796 910 q 801 590 799 772 q 796 351 803 407 q 697 73 783 160 q 432 -14 611 -14 z "},"Û":{"ha":831,"x_min":29,"x_max":804,"o":"m 432 -14 q 139 60 228 -14 q 38 301 50 133 q 31 531 32 367 q 32 826 31 694 l 33 958 q 321 958 207 976 q 328 390 324 525 q 421 274 333 274 q 507 407 504 274 l 507 958 q 794 958 682 978 q 797 841 796 910 q 801 590 799 772 q 796 351 803 407 q 697 73 783 160 q 432 -14 611 -14 z "},"Ü":{"ha":831,"x_min":29,"x_max":804,"o":"m 432 -14 q 139 60 228 -14 q 38 301 50 133 q 31 531 32 367 q 32 826 31 694 l 33 958 q 321 958 207 976 q 328 390 324 525 q 421 274 333 274 q 507 407 504 274 l 507 958 q 794 958 682 978 q 797 841 796 910 q 801 590 799 772 q 796 351 803 407 q 697 73 783 160 q 432 -14 611 -14 z "},"V":{"ha":825,"x_min":-11,"x_max":833,"o":"m 575 13 q 244 13 390 -3 q -11 975 138 333 q 325 975 179 1006 q 463 326 397 739 q 525 674 485 492 q 611 969 565 857 q 833 969 707 988 q 575 13 706 336 z "},"W":{"ha":1172,"x_min":3,"x_max":1169,"o":"m 428 13 q 160 13 294 -14 q 94 338 121 182 q 38 701 67 493 q 3 951 10 910 q 356 951 133 985 q 414 410 392 711 l 524 725 q 757 725 660 739 l 856 433 q 922 951 882 760 q 1168 951 1067 972 q 1134 699 1156 836 q 1098 477 1113 563 q 1053 228 1083 392 q 1013 13 1022 64 q 699 13 847 3 q 569 401 636 163 q 499 190 557 333 q 428 13 440 46 z "},"X":{"ha":846,"x_min":-6,"x_max":854,"o":"m 247 14 q -6 19 189 8 q 26 99 1 36 q 60 183 51 163 q 90 255 68 203 q 128 338 113 307 q 167 415 143 369 q 217 506 192 461 q 6 954 42 864 q 356 954 186 982 q 460 715 404 868 q 579 957 486 776 q 818 954 694 967 q 615 497 725 689 q 763 226 699 358 q 853 8 826 94 q 508 8 657 0 q 372 296 446 125 q 305 132 331 192 q 247 14 279 72 z "},"Y":{"ha":731,"x_min":-17,"x_max":749,"o":"m 226 8 q 233 413 217 118 q 76 706 150 536 q -17 954 1 875 q 103 961 94 961 q 218 958 113 961 q 240 909 225 946 q 267 837 254 872 q 300 744 279 801 q 331 663 321 688 q 447 958 350 738 q 617 963 514 963 q 747 958 721 963 q 492 399 582 551 l 492 8 q 226 8 368 -18 z "},"Ý":{"ha":731,"x_min":-17,"x_max":749,"o":"m 226 8 q 233 413 217 118 q 76 706 150 536 q -17 954 1 875 q 103 961 94 961 q 218 958 113 961 q 240 909 225 946 q 267 837 254 872 q 300 744 279 801 q 331 663 321 688 q 447 958 350 738 q 617 963 514 963 q 747 958 721 963 q 492 399 582 551 l 492 8 q 226 8 368 -18 z "},"Ÿ":{"ha":731,"x_min":-17,"x_max":749,"o":"m 226 8 q 233 413 217 118 q 76 706 150 536 q -17 954 1 875 q 103 961 94 961 q 218 958 113 961 q 240 909 225 946 q 267 837 254 872 q 300 744 279 801 q 331 663 321 688 q 447 958 350 738 q 617 963 514 963 q 747 958 721 963 q 492 399 582 551 l 492 8 q 226 8 368 -18 z "},"Z":{"ha":683,"x_min":6,"x_max":672,"o":"m 22 10 q 22 246 10 65 q 363 692 118 392 q 389 724 381 713 q 33 724 192 717 q 33 958 7 832 q 654 958 401 965 q 654 686 660 792 q 329 258 544 511 q 654 258 556 267 q 654 10 672 126 q 22 10 347 -21 z "},"[":{"ha":311,"x_min":28,"x_max":443,"o":"m 269 -172 l 433 -172 q 433 -315 443 -239 q 56 -315 246 -325 q 56 1271 28 382 q 433 1271 308 1281 q 433 1128 443 1193 q 269 1128 343 1122 l 269 -172 z "},"]":{"ha":311,"x_min":-133,"x_max":283,"o":"m 256 1271 q 256 -315 282 382 q -124 -315 65 -325 q -124 -172 -132 -239 l 40 -172 l 40 1128 q -124 1128 -32 1122 q -124 1271 -132 1193 q 256 1271 3 1281 z "},"^":{"ha":590,"x_min":19,"x_max":571,"o":"m 374 1063 l 569 638 l 404 579 l 294 875 l 185 592 l 19 651 l 215 1063 l 374 1063 z "},"_":{"ha":733,"x_min":6,"x_max":722,"o":"m 715 18 q 715 -162 722 -58 q 17 -162 383 -172 q 17 18 6 -104 q 715 18 369 31 z "},"a":{"ha":697,"x_min":19,"x_max":669,"o":"m 660 486 q 665 377 663 428 q 667 294 667 326 q 667 218 668 263 q 666 158 667 174 q 663 90 665 142 q 660 22 661 38 q 622 19 647 21 q 588 17 597 18 q 558 16 578 17 q 524 16 538 15 q 488 18 510 17 q 442 22 467 19 q 435 107 438 74 q 342 28 401 60 q 215 -3 283 -3 q 31 196 31 -3 q 92 372 31 303 q 249 440 154 440 q 401 418 318 440 q 296 503 389 503 q 61 449 175 503 q 19 685 19 547 q 66 701 36 692 q 185 727 96 711 q 363 743 275 743 q 660 486 643 743 m 372 165 q 410 219 400 165 q 413 324 419 272 q 381 342 403 342 q 338 233 338 342 q 372 165 338 165 z "},"à":{"ha":697,"x_min":19,"x_max":669,"o":"m 660 486 q 665 377 663 428 q 667 294 667 326 q 667 218 668 263 q 666 158 667 174 q 663 90 665 142 q 660 22 661 38 q 622 19 647 21 q 588 17 597 18 q 558 16 578 17 q 524 16 538 15 q 488 18 510 17 q 442 22 467 19 q 435 107 438 74 q 342 28 401 60 q 215 -3 283 -3 q 31 196 31 -3 q 92 372 31 303 q 249 440 154 440 q 401 418 318 440 q 296 503 389 503 q 61 449 175 503 q 19 685 19 547 q 66 701 36 692 q 185 727 96 711 q 363 743 275 743 q 660 486 643 743 m 372 165 q 410 219 400 165 q 413 324 419 272 q 381 342 403 342 q 338 233 338 342 q 372 165 338 165 z "},"á":{"ha":697,"x_min":19,"x_max":669,"o":"m 660 486 q 665 377 663 428 q 667 294 667 326 q 667 218 668 263 q 666 158 667 174 q 663 90 665 142 q 660 22 661 38 q 622 19 647 21 q 588 17 597 18 q 558 16 578 17 q 524 16 538 15 q 488 18 510 17 q 442 22 467 19 q 435 107 438 74 q 342 28 401 60 q 215 -3 283 -3 q 31 196 31 -3 q 92 372 31 303 q 249 440 154 440 q 401 418 318 440 q 296 503 389 503 q 61 449 175 503 q 19 685 19 547 q 66 701 36 692 q 185 727 96 711 q 363 743 275 743 q 660 486 643 743 m 372 165 q 410 219 400 165 q 413 324 419 272 q 381 342 403 342 q 338 233 338 342 q 372 165 338 165 z "},"â":{"ha":697,"x_min":19,"x_max":669,"o":"m 660 486 q 665 377 663 428 q 667 294 667 326 q 667 218 668 263 q 666 158 667 174 q 663 90 665 142 q 660 22 661 38 q 622 19 647 21 q 588 17 597 18 q 558 16 578 17 q 524 16 538 15 q 488 18 510 17 q 442 22 467 19 q 435 107 438 74 q 342 28 401 60 q 215 -3 283 -3 q 31 196 31 -3 q 92 372 31 303 q 249 440 154 440 q 401 418 318 440 q 296 503 389 503 q 61 449 175 503 q 19 685 19 547 q 66 701 36 692 q 185 727 96 711 q 363 743 275 743 q 660 486 643 743 m 372 165 q 410 219 400 165 q 413 324 419 272 q 381 342 403 342 q 338 233 338 342 q 372 165 338 165 z "},"ã":{"ha":697,"x_min":19,"x_max":669,"o":"m 660 486 q 665 377 663 428 q 667 294 667 326 q 667 218 668 263 q 666 158 667 174 q 663 90 665 142 q 660 22 661 38 q 622 19 647 21 q 588 17 597 18 q 558 16 578 17 q 524 16 538 15 q 488 18 510 17 q 442 22 467 19 q 435 107 438 74 q 342 28 401 60 q 215 -3 283 -3 q 31 196 31 -3 q 92 372 31 303 q 249 440 154 440 q 401 418 318 440 q 296 503 389 503 q 61 449 175 503 q 19 685 19 547 q 66 701 36 692 q 185 727 96 711 q 363 743 275 743 q 660 486 643 743 m 372 165 q 410 219 400 165 q 413 324 419 272 q 381 342 403 342 q 338 233 338 342 q 372 165 338 165 z "},"ä":{"ha":697,"x_min":19,"x_max":669,"o":"m 660 486 q 665 377 663 428 q 667 294 667 326 q 667 218 668 263 q 666 158 667 174 q 663 90 665 142 q 660 22 661 38 q 622 19 647 21 q 588 17 597 18 q 558 16 578 17 q 524 16 538 15 q 488 18 510 17 q 442 22 467 19 q 435 107 438 74 q 342 28 401 60 q 215 -3 283 -3 q 31 196 31 -3 q 92 372 31 303 q 249 440 154 440 q 401 418 318 440 q 296 503 389 503 q 61 449 175 503 q 19 685 19 547 q 66 701 36 692 q 185 727 96 711 q 363 743 275 743 q 660 486 643 743 m 372 165 q 410 219 400 165 q 413 324 419 272 q 381 342 403 342 q 338 233 338 342 q 372 165 338 165 z "},"å":{"ha":697,"x_min":19,"x_max":669,"o":"m 660 486 q 665 377 663 428 q 667 294 667 326 q 667 218 668 263 q 666 158 667 174 q 663 90 665 142 q 660 22 661 38 q 622 19 647 21 q 588 17 597 18 q 558 16 578 17 q 524 16 538 15 q 488 18 510 17 q 442 22 467 19 q 435 107 438 74 q 342 28 401 60 q 215 -3 283 -3 q 31 196 31 -3 q 92 372 31 303 q 249 440 154 440 q 401 418 318 440 q 296 503 389 503 q 61 449 175 503 q 19 685 19 547 q 66 701 36 692 q 185 727 96 711 q 363 743 275 743 q 660 486 643 743 m 372 165 q 410 219 400 165 q 413 324 419 272 q 381 342 403 342 q 338 233 338 342 q 372 165 338 165 z "},"b":{"ha":710,"x_min":18,"x_max":692,"o":"m 485 733 q 690 361 690 733 q 604 88 690 189 q 349 -12 518 -12 q 195 -4 269 -12 q 86 14 121 4 l 51 22 q 42 1047 18 532 q 297 1047 172 1058 q 306 640 303 917 q 485 733 374 733 m 403 361 q 403 398 403 374 q 403 443 403 422 q 401 481 403 464 q 397 511 400 499 q 389 533 394 524 q 374 547 383 542 q 353 551 365 551 q 313 517 321 551 q 306 392 306 482 q 306 382 306 386 q 306 372 306 378 q 306 361 306 365 l 306 228 q 354 206 319 206 q 403 361 403 206 z "},"c":{"ha":664,"x_min":15,"x_max":654,"o":"m 421 243 q 564 282 489 243 q 622 51 618 168 q 351 -3 490 -3 q 99 90 183 -3 q 15 361 15 182 q 112 639 15 544 q 378 733 208 733 q 567 669 496 733 q 653 444 639 604 q 404 378 588 403 q 408 509 415 467 q 369 551 400 551 q 330 527 344 551 q 309 463 315 503 q 303 361 303 422 q 375 244 303 254 q 421 243 385 243 z "},"ç":{"ha":664,"x_min":15,"x_max":654,"o":"m 421 243 q 564 282 489 243 q 622 51 618 168 q 351 -3 490 -3 q 99 90 183 -3 q 15 361 15 182 q 112 639 15 544 q 378 733 208 733 q 567 669 496 733 q 653 444 639 604 q 404 378 588 403 q 408 509 415 467 q 369 551 400 551 q 330 527 344 551 q 309 463 315 503 q 303 361 303 422 q 375 244 303 254 q 421 243 385 243 z "},"d":{"ha":738,"x_min":17,"x_max":701,"o":"m 692 1047 q 700 22 700 875 q 658 19 685 21 q 621 16 631 17 q 591 15 611 15 q 551 17 571 15 q 500 22 531 18 q 454 132 481 51 q 387 31 429 65 q 275 -3 344 -3 q 81 89 143 -3 q 18 361 18 181 q 98 635 18 538 q 286 733 178 733 q 428 661 389 733 q 438 1047 428 858 q 567 1056 518 1056 q 692 1047 617 1056 m 374 153 q 392 157 383 153 q 406 170 400 161 q 415 190 411 179 q 422 216 419 200 q 426 247 425 232 q 428 283 428 261 q 430 320 429 304 q 431 361 431 336 q 431 375 431 365 q 429 436 429 401 q 421 510 426 481 q 402 558 415 539 q 367 578 389 578 q 319 521 332 578 q 306 361 306 464 q 319 203 306 254 q 374 153 333 153 z "},"e":{"ha":667,"x_min":15,"x_max":651,"o":"m 631 318 q 306 318 496 308 q 319 269 310 288 q 344 242 329 250 q 372 233 360 235 q 404 231 385 231 q 557 265 479 231 q 610 56 604 193 q 350 -3 506 -3 q 100 90 185 -3 q 15 361 15 183 q 106 640 15 546 q 364 733 196 733 q 575 651 499 733 q 651 414 651 568 q 647 360 651 385 q 636 326 642 336 l 631 318 m 406 451 q 369 551 432 551 q 307 451 319 551 q 406 451 356 458 z "},"è":{"ha":667,"x_min":15,"x_max":651,"o":"m 631 318 q 306 318 496 308 q 319 269 310 288 q 344 242 329 250 q 372 233 360 235 q 404 231 385 231 q 557 265 479 231 q 610 56 604 193 q 350 -3 506 -3 q 100 90 185 -3 q 15 361 15 183 q 106 640 15 546 q 364 733 196 733 q 575 651 499 733 q 651 414 651 568 q 647 360 651 385 q 636 326 642 336 l 631 318 m 406 451 q 369 551 432 551 q 307 451 319 551 q 406 451 356 458 z "},"é":{"ha":667,"x_min":15,"x_max":651,"o":"m 631 318 q 306 318 496 308 q 319 269 310 288 q 344 242 329 250 q 372 233 360 235 q 404 231 385 231 q 557 265 479 231 q 610 56 604 193 q 350 -3 506 -3 q 100 90 185 -3 q 15 361 15 183 q 106 640 15 546 q 364 733 196 733 q 575 651 499 733 q 651 414 651 568 q 647 360 651 385 q 636 326 642 336 l 631 318 m 406 451 q 369 551 432 551 q 307 451 319 551 q 406 451 356 458 z "},"ê":{"ha":667,"x_min":15,"x_max":651,"o":"m 631 318 q 306 318 496 308 q 319 269 310 288 q 344 242 329 250 q 372 233 360 235 q 404 231 385 231 q 557 265 479 231 q 610 56 604 193 q 350 -3 506 -3 q 100 90 185 -3 q 15 361 15 183 q 106 640 15 546 q 364 733 196 733 q 575 651 499 733 q 651 414 651 568 q 647 360 651 385 q 636 326 642 336 l 631 318 m 406 451 q 369 551 432 551 q 307 451 319 551 q 406 451 356 458 z "},"ë":{"ha":667,"x_min":15,"x_max":651,"o":"m 631 318 q 306 318 496 308 q 319 269 310 288 q 344 242 329 250 q 372 233 360 235 q 404 231 385 231 q 557 265 479 231 q 610 56 604 193 q 350 -3 506 -3 q 100 90 185 -3 q 15 361 15 183 q 106 640 15 546 q 364 733 196 733 q 575 651 499 733 q 651 414 651 568 q 647 360 651 385 q 636 326 642 336 l 631 318 m 406 451 q 369 551 432 551 q 307 451 319 551 q 406 451 356 458 z "},"f":{"ha":553,"x_min":-1,"x_max":617,"o":"m 474 810 q 397 781 417 810 q 375 700 376 753 l 542 700 q 542 488 563 601 q 371 488 450 476 q 363 229 369 385 q 356 22 356 74 q 100 22 222 0 q 96 488 85 219 l 18 488 q 18 700 0 565 l 106 700 q 111 775 108 740 q 122 853 114 815 q 151 932 131 890 q 202 1003 172 974 q 283 1053 232 1033 q 400 1074 335 1074 q 511 1067 457 1074 q 590 1053 565 1060 l 615 1046 l 588 796 q 474 810 542 810 z "},"g":{"ha":740,"x_min":14,"x_max":717,"o":"m 708 703 q 681 13 715 301 q 364 -253 649 -253 q 205 -234 286 -253 q 82 -196 124 -215 l 40 -176 q 99 69 39 -46 q 133 49 111 61 q 217 15 156 36 q 333 -6 279 -6 q 412 22 392 -6 q 432 106 432 50 l 432 113 q 289 99 382 99 q 82 178 150 99 q 14 396 14 257 q 86 638 14 542 q 278 735 158 735 q 469 639 407 735 q 514 703 499 688 q 708 703 649 708 m 432 290 l 432 417 q 419 562 432 519 q 368 604 406 604 q 333 587 346 604 q 315 529 321 569 q 308 417 308 489 q 328 320 308 356 q 390 285 349 285 q 432 290 410 285 z "},"h":{"ha":739,"x_min":32,"x_max":713,"o":"m 710 486 q 709 319 713 436 q 701 111 706 203 l 696 19 q 431 19 528 -1 q 424 143 426 76 q 423 253 422 210 q 424 368 424 296 q 425 464 425 440 q 415 563 426 535 q 372 590 404 590 q 306 454 318 590 q 303 322 304 390 q 299 22 299 72 q 44 22 140 11 q 35 526 33 171 q 49 1047 38 881 q 303 1047 172 1054 q 308 653 310 922 q 483 733 364 733 q 710 486 696 733 z "},"i":{"ha":340,"x_min":18,"x_max":319,"o":"m 39 703 q 293 703 163 710 q 304 22 304 490 q 50 22 146 11 q 33 354 36 172 q 39 703 29 536 m 274 814 q 252 794 274 814 q 168 775 231 775 q 62 814 106 775 q 18 908 18 853 q 62 1001 18 963 q 168 1040 106 1040 q 274 1001 231 1040 q 318 908 318 963 q 274 814 318 853 z "},"ì":{"ha":340,"x_min":18,"x_max":319,"o":"m 39 703 q 293 703 163 710 q 304 22 304 490 q 50 22 146 11 q 33 354 36 172 q 39 703 29 536 m 274 814 q 252 794 274 814 q 168 775 231 775 q 62 814 106 775 q 18 908 18 853 q 62 1001 18 963 q 168 1040 106 1040 q 274 1001 231 1040 q 318 908 318 963 q 274 814 318 853 z "},"í":{"ha":340,"x_min":18,"x_max":319,"o":"m 39 703 q 293 703 163 710 q 304 22 304 490 q 50 22 146 11 q 33 354 36 172 q 39 703 29 536 m 274 814 q 252 794 274 814 q 168 775 231 775 q 62 814 106 775 q 18 908 18 853 q 62 1001 18 963 q 168 1040 106 1040 q 274 1001 231 1040 q 318 908 318 963 q 274 814 318 853 z "},"î":{"ha":340,"x_min":18,"x_max":319,"o":"m 39 703 q 293 703 163 710 q 304 22 304 490 q 50 22 146 11 q 33 354 36 172 q 39 703 29 536 m 274 814 q 252 794 274 814 q 168 775 231 775 q 62 814 106 775 q 18 908 18 853 q 62 1001 18 963 q 168 1040 106 1040 q 274 1001 231 1040 q 318 908 318 963 q 274 814 318 853 z "},"ï":{"ha":340,"x_min":18,"x_max":319,"o":"m 39 703 q 293 703 163 710 q 304 22 304 490 q 50 22 146 11 q 33 354 36 172 q 39 703 29 536 m 274 814 q 252 794 274 814 q 168 775 231 775 q 62 814 106 775 q 18 908 18 853 q 62 1001 18 963 q 168 1040 106 1040 q 274 1001 231 1040 q 318 908 318 963 q 274 814 318 853 z "},"j":{"ha":340,"x_min":-172,"x_max":318,"o":"m 39 700 q 294 700 163 708 q 301 506 299 613 q 304 341 304 400 q 304 161 304 282 q 304 22 304 40 q 293 -100 304 -46 q 264 -190 282 -154 q 219 -253 246 -226 q 167 -295 193 -281 q 109 -318 142 -310 q 51 -329 76 -326 q -3 -332 26 -332 q -172 -312 -79 -332 l -128 -46 q -35 -54 -71 -54 q 31 -33 13 -54 q 47 38 50 -12 q 39 700 25 500 m 167 775 q 61 814 106 775 q 17 908 17 853 q 61 1001 17 963 q 167 1040 106 1040 q 274 1001 229 1040 q 318 907 318 963 q 298 840 318 871 q 243 792 278 810 q 167 775 208 775 z "},"k":{"ha":686,"x_min":32,"x_max":678,"o":"m 481 408 q 488 407 483 408 q 509 399 493 406 q 538 385 525 393 q 572 360 551 376 q 607 324 593 344 q 638 274 621 303 q 660 208 654 244 q 672 124 667 172 q 667 19 676 76 q 407 19 564 3 q 409 35 408 25 q 410 73 410 44 q 408 127 410 101 q 399 185 406 153 q 381 241 392 217 q 349 283 369 265 q 303 303 329 300 q 299 22 299 75 q 44 22 140 11 q 35 526 33 171 q 49 1047 38 881 q 303 1047 172 1054 q 306 515 311 896 q 400 733 389 565 q 636 704 542 740 q 635 682 636 696 q 627 628 635 668 q 606 552 619 588 q 559 476 592 517 q 481 408 526 435 z "},"l":{"ha":344,"x_min":25,"x_max":319,"o":"m 301 1047 q 297 19 318 357 q 42 19 175 10 q 46 1047 26 311 q 301 1047 218 1054 z "},"m":{"ha":1111,"x_min":28,"x_max":1081,"o":"m 1079 469 q 1077 279 1081 392 q 1069 93 1074 167 l 1067 19 q 801 19 906 7 q 796 137 797 69 q 794 253 794 204 q 795 376 794 301 q 796 478 796 451 q 789 557 796 536 q 756 578 782 578 q 706 529 719 578 q 693 390 693 481 q 688 234 692 326 q 682 81 685 142 l 678 19 q 648 13 675 17 q 583 6 621 8 q 497 6 544 3 q 414 19 450 10 q 408 464 406 154 q 405 535 408 511 q 393 568 401 558 q 368 578 385 578 q 346 570 356 578 q 330 545 336 563 q 319 510 324 528 q 311 462 314 493 q 307 406 308 431 q 304 340 306 382 q 303 160 304 272 q 303 19 303 49 q 49 19 217 8 q 38 700 28 247 q 229 700 126 706 q 242 677 233 692 q 259 645 250 663 q 275 615 268 628 q 499 733 335 733 q 667 614 622 733 q 713 674 685 649 q 786 717 742 700 q 885 733 831 733 q 976 715 938 733 q 1033 672 1014 697 q 1064 608 1053 647 q 1077 540 1075 568 q 1079 469 1079 511 z "},"n":{"ha":747,"x_min":25,"x_max":717,"o":"m 714 469 q 716 381 715 439 q 716 263 717 322 q 715 147 715 203 q 714 56 715 92 l 714 19 q 449 19 544 -1 q 429 464 428 200 q 419 563 431 535 q 376 590 408 590 q 303 336 293 590 q 310 19 310 151 q 56 19 150 10 q 33 700 26 354 q 239 700 128 706 q 274 621 256 665 q 501 733 346 733 q 594 715 554 733 q 655 672 633 697 q 690 608 676 647 q 707 539 703 568 q 714 469 711 510 z "},"ñ":{"ha":747,"x_min":25,"x_max":717,"o":"m 714 469 q 716 381 715 439 q 716 263 717 322 q 715 147 715 203 q 714 56 715 92 l 714 19 q 449 19 544 -1 q 429 464 428 200 q 419 563 431 535 q 376 590 408 590 q 303 336 293 590 q 310 19 310 151 q 56 19 150 10 q 33 700 26 354 q 239 700 128 706 q 274 621 256 665 q 501 733 346 733 q 594 715 554 733 q 655 672 633 697 q 690 608 676 647 q 707 539 703 568 q 714 469 711 510 z "},"o":{"ha":743,"x_min":15,"x_max":729,"o":"m 361 733 q 637 637 544 733 q 729 361 729 540 q 638 94 729 192 q 374 -3 547 -3 q 103 89 190 -3 q 15 361 15 181 q 104 640 15 546 q 361 733 193 733 m 371 179 q 425 226 410 179 q 440 361 440 272 q 433 464 440 424 q 410 528 426 504 q 364 551 393 551 q 333 539 346 551 q 315 500 321 526 q 306 441 308 474 q 303 361 303 408 q 316 219 303 260 q 371 179 329 179 z "},"ò":{"ha":743,"x_min":15,"x_max":729,"o":"m 361 733 q 637 637 544 733 q 729 361 729 540 q 638 94 729 192 q 374 -3 547 -3 q 103 89 190 -3 q 15 361 15 181 q 104 640 15 546 q 361 733 193 733 m 371 179 q 425 226 410 179 q 440 361 440 272 q 433 464 440 424 q 410 528 426 504 q 364 551 393 551 q 333 539 346 551 q 315 500 321 526 q 306 441 308 474 q 303 361 303 408 q 316 219 303 260 q 371 179 329 179 z "},"ó":{"ha":743,"x_min":15,"x_max":729,"o":"m 361 733 q 637 637 544 733 q 729 361 729 540 q 638 94 729 192 q 374 -3 547 -3 q 103 89 190 -3 q 15 361 15 181 q 104 640 15 546 q 361 733 193 733 m 371 179 q 425 226 410 179 q 440 361 440 272 q 433 464 440 424 q 410 528 426 504 q 364 551 393 551 q 333 539 346 551 q 315 500 321 526 q 306 441 308 474 q 303 361 303 408 q 316 219 303 260 q 371 179 329 179 z "},"ô":{"ha":743,"x_min":15,"x_max":729,"o":"m 361 733 q 637 637 544 733 q 729 361 729 540 q 638 94 729 192 q 374 -3 547 -3 q 103 89 190 -3 q 15 361 15 181 q 104 640 15 546 q 361 733 193 733 m 371 179 q 425 226 410 179 q 440 361 440 272 q 433 464 440 424 q 410 528 426 504 q 364 551 393 551 q 333 539 346 551 q 315 500 321 526 q 306 441 308 474 q 303 361 303 408 q 316 219 303 260 q 371 179 329 179 z "},"õ":{"ha":743,"x_min":15,"x_max":729,"o":"m 361 733 q 637 637 544 733 q 729 361 729 540 q 638 94 729 192 q 374 -3 547 -3 q 103 89 190 -3 q 15 361 15 181 q 104 640 15 546 q 361 733 193 733 m 371 179 q 425 226 410 179 q 440 361 440 272 q 433 464 440 424 q 410 528 426 504 q 364 551 393 551 q 333 539 346 551 q 315 500 321 526 q 306 441 308 474 q 303 361 303 408 q 316 219 303 260 q 371 179 329 179 z "},"ö":{"ha":743,"x_min":15,"x_max":729,"o":"m 361 733 q 637 637 544 733 q 729 361 729 540 q 638 94 729 192 q 374 -3 547 -3 q 103 89 190 -3 q 15 361 15 181 q 104 640 15 546 q 361 733 193 733 m 371 179 q 425 226 410 179 q 440 361 440 272 q 433 464 440 424 q 410 528 426 504 q 364 551 393 551 q 333 539 346 551 q 315 500 321 526 q 306 441 308 474 q 303 361 303 408 q 316 219 303 260 q 371 179 329 179 z "},"ø":{"ha":743,"x_min":15,"x_max":729,"o":"m 361 733 q 637 637 544 733 q 729 361 729 540 q 638 94 729 192 q 374 -3 547 -3 q 103 89 190 -3 q 15 361 15 181 q 104 640 15 546 q 361 733 193 733 m 371 179 q 425 226 410 179 q 440 361 440 272 q 433 464 440 424 q 410 528 426 504 q 364 551 393 551 q 333 539 346 551 q 315 500 321 526 q 306 441 308 474 q 303 361 303 408 q 316 219 303 260 q 371 179 329 179 z "},"p":{"ha":756,"x_min":31,"x_max":738,"o":"m 492 735 q 676 647 617 735 q 736 383 736 560 q 719 228 736 297 q 667 103 703 158 q 568 19 631 49 q 419 -11 506 -11 q 297 1 356 -11 q 278 -279 288 -176 q 244 -282 268 -281 q 212 -284 221 -283 q 184 -285 203 -285 q 153 -286 165 -286 q 124 -285 142 -286 q 88 -283 106 -285 q 49 -279 69 -282 q 33 233 32 -83 q 56 703 35 549 q 233 703 154 714 q 272 625 243 685 q 492 735 333 735 m 374 169 q 427 216 413 169 q 442 363 442 263 q 433 558 442 511 q 394 604 425 604 q 335 542 354 604 q 311 339 315 481 q 307 185 310 263 q 374 169 350 169 z "},"q":{"ha":743,"x_min":18,"x_max":711,"o":"m 699 703 q 709 495 708 629 q 706 235 710 361 q 697 -44 701 110 q 692 -279 692 -199 q 565 -286 592 -286 q 449 -279 538 -286 q 442 -4 443 -167 q 297 -11 372 -11 q 86 88 154 -11 q 18 361 18 188 q 86 636 18 538 q 279 735 154 735 q 499 625 419 735 q 547 703 538 685 q 699 703 642 708 m 388 188 q 440 194 407 188 q 439 356 440 319 q 418 554 429 504 q 371 604 407 604 q 325 554 338 604 q 313 363 313 504 q 315 293 313 321 q 325 239 318 265 q 348 200 332 213 q 388 188 364 188 z "},"r":{"ha":576,"x_min":29,"x_max":592,"o":"m 567 719 q 532 443 590 525 q 431 465 471 465 q 338 419 372 465 q 304 306 304 374 q 304 22 304 258 q 50 22 146 11 q 33 354 36 172 q 39 703 29 536 q 293 703 163 710 q 299 588 296 650 q 486 735 343 735 q 567 719 528 735 z "},"s":{"ha":608,"x_min":10,"x_max":597,"o":"m 310 549 q 268 517 268 549 q 291 485 268 500 q 349 460 314 471 q 426 431 385 450 q 501 388 467 413 q 560 318 536 364 q 583 213 583 272 q 504 53 583 108 q 308 -3 425 -3 q 128 36 207 -3 q 11 161 50 75 q 83 232 35 199 q 183 278 131 265 q 296 193 233 193 q 335 226 335 193 q 311 258 335 243 q 253 285 288 274 q 178 316 218 297 q 103 358 138 335 q 45 424 68 382 q 22 521 22 467 q 98 678 22 624 q 299 733 174 733 q 476 687 400 733 q 597 561 553 640 q 424 464 540 494 q 310 549 372 549 z "},"t":{"ha":611,"x_min":-15,"x_max":599,"o":"m 561 269 l 599 19 q 393 -3 522 -3 q 253 12 310 -3 q 167 56 197 26 q 124 119 138 85 q 110 204 111 154 q 104 488 104 332 l 19 488 q 19 700 -14 593 l 108 700 q 121 969 113 850 q 376 969 217 981 q 378 700 383 839 l 557 700 q 557 488 575 611 l 378 488 q 379 367 378 428 q 381 319 379 335 q 391 287 382 304 q 420 263 400 269 q 474 256 440 256 q 502 257 488 256 q 527 260 517 258 q 546 265 538 263 q 558 268 554 267 l 561 269 z "},"u":{"ha":771,"x_min":29,"x_max":733,"o":"m 446 700 q 733 700 543 725 l 733 19 q 539 19 663 6 q 495 85 519 42 q 460 156 471 128 q 439 103 453 129 q 401 53 425 78 q 339 13 378 28 q 251 -3 300 -3 q 33 239 43 -3 q 31 307 32 267 q 31 390 31 347 q 31 477 31 432 q 31 562 31 522 q 32 633 32 601 q 33 682 32 664 l 33 700 q 321 700 200 736 l 321 361 q 331 227 321 263 q 375 192 342 192 q 446 408 446 192 l 446 700 z "},"ù":{"ha":771,"x_min":29,"x_max":733,"o":"m 446 700 q 733 700 543 725 l 733 19 q 539 19 663 6 q 495 85 519 42 q 460 156 471 128 q 439 103 453 129 q 401 53 425 78 q 339 13 378 28 q 251 -3 300 -3 q 33 239 43 -3 q 31 307 32 267 q 31 390 31 347 q 31 477 31 432 q 31 562 31 522 q 32 633 32 601 q 33 682 32 664 l 33 700 q 321 700 200 736 l 321 361 q 331 227 321 263 q 375 192 342 192 q 446 408 446 192 l 446 700 z "},"ú":{"ha":771,"x_min":29,"x_max":733,"o":"m 446 700 q 733 700 543 725 l 733 19 q 539 19 663 6 q 495 85 519 42 q 460 156 471 128 q 439 103 453 129 q 401 53 425 78 q 339 13 378 28 q 251 -3 300 -3 q 33 239 43 -3 q 31 307 32 267 q 31 390 31 347 q 31 477 31 432 q 31 562 31 522 q 32 633 32 601 q 33 682 32 664 l 33 700 q 321 700 200 736 l 321 361 q 331 227 321 263 q 375 192 342 192 q 446 408 446 192 l 446 700 z "},"û":{"ha":771,"x_min":29,"x_max":733,"o":"m 446 700 q 733 700 543 725 l 733 19 q 539 19 663 6 q 495 85 519 42 q 460 156 471 128 q 439 103 453 129 q 401 53 425 78 q 339 13 378 28 q 251 -3 300 -3 q 33 239 43 -3 q 31 307 32 267 q 31 390 31 347 q 31 477 31 432 q 31 562 31 522 q 32 633 32 601 q 33 682 32 664 l 33 700 q 321 700 200 736 l 321 361 q 331 227 321 263 q 375 192 342 192 q 446 408 446 192 l 446 700 z "},"ü":{"ha":771,"x_min":29,"x_max":733,"o":"m 446 700 q 733 700 543 725 l 733 19 q 539 19 663 6 q 495 85 519 42 q 460 156 471 128 q 439 103 453 129 q 401 53 425 78 q 339 13 378 28 q 251 -3 300 -3 q 33 239 43 -3 q 31 307 32 267 q 31 390 31 347 q 31 477 31 432 q 31 562 31 522 q 32 633 32 601 q 33 682 32 664 l 33 700 q 321 700 200 736 l 321 361 q 331 227 321 263 q 375 192 342 192 q 446 408 446 192 l 446 700 z "},"v":{"ha":639,"x_min":0,"x_max":642,"o":"m 446 700 q 642 700 538 719 q 603 544 626 639 q 572 416 579 449 q 549 324 564 383 q 526 241 533 265 q 506 174 518 217 q 481 99 493 132 q 453 19 469 65 q 313 6 368 6 q 190 19 257 6 q 88 324 142 128 q 0 700 33 521 q 296 700 179 736 q 328 563 317 626 q 367 335 340 500 q 446 700 418 607 z "},"w":{"ha":1044,"x_min":-4,"x_max":1047,"o":"m 851 700 q 1047 700 976 722 q 1008 544 1032 639 q 977 416 985 449 q 954 324 969 383 q 931 241 939 265 q 911 174 924 217 q 887 99 899 132 q 858 19 875 65 q 635 19 736 6 q 528 357 561 224 q 512 288 521 324 q 490 213 503 253 q 469 149 478 174 q 444 79 461 125 q 424 19 428 33 q 299 6 343 6 q 188 19 256 6 q -3 700 107 239 q 293 700 138 738 q 310 645 300 676 q 325 594 319 614 q 338 542 331 574 q 354 469 346 511 q 371 371 363 428 q 443 700 415 607 q 689 700 560 714 q 765 368 729 578 q 851 700 790 494 z "},"x":{"ha":717,"x_min":-7,"x_max":718,"o":"m 547 372 q 718 19 686 103 q 557 5 658 6 q 396 19 456 4 q 310 178 340 100 q 232 19 261 67 q 115 5 186 4 q -6 19 43 6 q 178 399 75 200 q 40 701 82 593 q 185 713 108 711 q 339 701 263 715 q 400 557 364 656 q 469 701 447 663 q 594 713 521 714 q 703 701 667 713 q 547 372 642 551 z "},"y":{"ha":740,"x_min":25,"x_max":711,"o":"m 446 703 q 538 716 490 711 q 636 718 586 721 q 710 703 686 715 q 682 13 710 303 q 659 -91 676 -46 q 607 -174 642 -136 q 511 -233 572 -212 q 365 -253 450 -253 q 206 -234 286 -253 q 83 -196 125 -215 l 42 -176 q 100 69 44 1 q 135 49 113 61 q 219 15 157 36 q 333 -6 281 -6 q 419 16 397 -6 q 442 101 440 38 q 440 203 442 142 q 244 107 365 107 q 140 122 182 107 q 74 167 97 136 q 41 238 51 199 q 28 338 31 278 q 26 491 26 410 q 29 636 26 572 l 31 700 q 318 700 190 726 l 318 414 q 325 321 318 353 q 342 281 332 289 q 372 272 353 272 q 422 347 407 272 q 438 521 438 422 q 446 703 442 674 z "},"ý":{"ha":740,"x_min":25,"x_max":711,"o":"m 446 703 q 538 716 490 711 q 636 718 586 721 q 710 703 686 715 q 682 13 710 303 q 659 -91 676 -46 q 607 -174 642 -136 q 511 -233 572 -212 q 365 -253 450 -253 q 206 -234 286 -253 q 83 -196 125 -215 l 42 -176 q 100 69 44 1 q 135 49 113 61 q 219 15 157 36 q 333 -6 281 -6 q 419 16 397 -6 q 442 101 440 38 q 440 203 442 142 q 244 107 365 107 q 140 122 182 107 q 74 167 97 136 q 41 238 51 199 q 28 338 31 278 q 26 491 26 410 q 29 636 26 572 l 31 700 q 318 700 190 726 l 318 414 q 325 321 318 353 q 342 281 332 289 q 372 272 353 272 q 422 347 407 272 q 438 521 438 422 q 446 703 442 674 z "},"ÿ":{"ha":740,"x_min":25,"x_max":711,"o":"m 446 703 q 538 716 490 711 q 636 718 586 721 q 710 703 686 715 q 682 13 710 303 q 659 -91 676 -46 q 607 -174 642 -136 q 511 -233 572 -212 q 365 -253 450 -253 q 206 -234 286 -253 q 83 -196 125 -215 l 42 -176 q 100 69 44 1 q 135 49 113 61 q 219 15 157 36 q 333 -6 281 -6 q 419 16 397 -6 q 442 101 440 38 q 440 203 442 142 q 244 107 365 107 q 140 122 182 107 q 74 167 97 136 q 41 238 51 199 q 28 338 31 278 q 26 491 26 410 q 29 636 26 572 l 31 700 q 318 700 190 726 l 318 414 q 325 321 318 353 q 342 281 332 289 q 372 272 353 272 q 422 347 407 272 q 438 521 438 422 q 446 703 442 674 z "},"z":{"ha":601,"x_min":18,"x_max":583,"o":"m 563 264 q 581 133 582 208 q 563 18 581 57 q 35 18 360 10 l 35 19 q 35 175 26 56 q 300 460 186 369 q 24 465 218 457 q 19 578 19 504 q 24 700 19 653 q 563 700 343 707 q 563 504 565 581 q 350 261 438 332 q 563 264 519 268 z "},"{":{"ha":469,"x_min":74,"x_max":575,"o":"m 428 239 q 414 8 408 110 q 461 -158 419 -94 q 575 -221 503 -221 q 552 -278 569 -251 q 508 -314 535 -306 q 278 -183 360 -314 q 211 226 196 -51 q 122 385 219 360 q 83 388 92 392 q 75 476 75 401 q 83 571 75 550 l 114 571 q 211 688 200 588 q 211 731 213 708 q 223 978 204 872 q 283 1148 242 1085 q 381 1241 325 1211 q 508 1271 438 1271 q 552 1236 535 1263 q 575 1179 569 1210 q 463 1116 503 1179 q 417 951 422 1053 q 428 718 411 849 q 428 628 435 668 q 403 559 422 588 q 365 514 383 531 q 319 479 347 497 q 345 460 335 468 q 371 439 356 453 q 394 413 386 425 q 414 381 403 400 q 427 342 425 361 q 432 295 429 322 q 428 239 435 268 z "},"}":{"ha":469,"x_min":-106,"x_max":394,"o":"m 386 571 q 394 476 394 550 q 386 388 393 401 l 354 386 q 258 269 268 369 q 257 226 256 250 q 247 -22 265 85 q 186 -190 228 -128 q 88 -283 144 -253 q -39 -314 32 -314 q -83 -278 -65 -306 q -106 -221 -100 -251 q 8 -158 -33 -221 q 55 8 50 -94 q 40 239 60 110 q 36 295 33 268 q 42 342 39 322 q 55 381 44 361 q 74 413 65 400 q 97 439 82 425 q 123 460 113 453 q 149 479 133 468 q 103 514 121 497 q 67 559 86 531 q 40 628 47 588 q 40 718 33 668 q 52 951 57 849 q 7 1116 47 1053 q -106 1179 -33 1179 q -83 1236 -100 1210 q -39 1271 -65 1263 q 190 1140 108 1271 q 257 731 272 1008 q 346 574 250 599 q 386 571 378 565 z "}," ":{"ha":432,"x_min":0,"x_max":0,"o":""},"«":{"ha":758,"x_min":24,"x_max":742,"o":"m 740 642 q 528 353 614 429 q 740 65 629 253 q 526 65 643 46 q 342 314 375 251 l 342 393 q 526 642 392 481 q 603 651 565 650 q 664 651 640 653 q 740 642 688 649 m 424 642 q 211 353 297 429 q 424 65 311 253 q 210 65 326 46 q 24 314 58 251 l 24 393 q 210 642 75 481 q 264 650 239 647 q 318 651 289 653 q 365 649 347 650 q 424 642 382 647 z "},"­":{"ha":0,"x_min":0,"x_max":0,"o":""},"»":{"ha":758,"x_min":17,"x_max":735,"o":"m 417 393 l 417 314 q 231 65 382 251 q 17 65 114 46 q 229 353 128 253 q 17 642 143 429 q 93 651 69 649 q 154 651 117 653 q 231 642 192 650 q 417 393 365 481 m 549 642 q 733 393 682 481 l 733 314 q 549 65 699 251 q 335 65 432 46 q 546 353 446 253 q 335 642 461 429 q 410 651 386 649 q 472 651 435 653 q 549 642 510 650 z "},"¿":{"ha":688,"x_min":75,"x_max":678,"o":"m 665 435 q 592 130 676 242 q 364 18 508 18 q 149 92 222 18 q 75 278 75 167 q 96 387 75 339 q 149 469 117 435 q 213 535 181 503 q 275 617 246 568 q 315 725 304 665 q 524 719 446 738 q 499 590 521 651 q 446 488 476 529 q 385 410 415 446 q 333 342 354 375 q 313 283 313 310 q 361 232 313 232 q 444 295 415 232 q 468 457 474 358 q 665 435 579 471 m 431 764 q 322 801 354 764 q 290 890 290 838 q 322 978 290 943 q 426 1013 353 1013 q 494 1002 465 1013 q 536 972 522 992 q 556 933 550 953 q 563 890 563 914 q 531 799 563 835 q 431 764 500 764 z "},"–":{"ha":799,"x_min":19,"x_max":778,"o":"m 767 446 q 767 267 778 400 q 33 267 381 253 q 33 446 19 356 q 767 446 435 458 z "},"‘":{"ha":275,"x_min":22,"x_max":283,"o":"m 156 1232 q 282 1183 240 1214 q 240 844 253 1033 l 22 886 q 25 906 24 893 q 36 958 26 919 q 59 1036 46 997 q 98 1129 72 1075 q 156 1232 124 1183 z "},"’":{"ha":235,"x_min":22,"x_max":283,"o":"m 64 1232 l 282 1190 q 280 1170 282 1183 q 268 1118 278 1157 q 245 1040 258 1079 q 206 947 232 1001 q 149 844 181 893 q 22 893 81 857 q 64 1232 51 1043 z "},"‚":{"ha":299,"x_min":13,"x_max":274,"o":"m 54 254 l 272 211 q 270 192 272 204 q 258 140 268 179 q 235 63 249 101 q 197 -31 222 24 q 139 -133 171 -85 q 13 -85 71 -121 q 54 254 42 65 z "},"“":{"ha":542,"x_min":21,"x_max":550,"o":"m 422 1232 q 549 1183 490 1219 q 507 844 521 1033 l 289 886 q 292 906 290 893 q 303 958 294 919 q 326 1036 313 997 q 365 1129 339 1075 q 422 1232 390 1183 m 22 886 q 25 906 24 893 q 36 958 26 919 q 59 1036 46 997 q 98 1129 72 1075 q 156 1232 124 1183 q 282 1183 240 1214 q 240 844 253 1033 l 22 886 z "},"”":{"ha":501,"x_min":22,"x_max":550,"o":"m 22 893 q 64 1232 51 1043 l 282 1190 q 280 1170 282 1183 q 268 1118 278 1157 q 245 1040 258 1079 q 206 947 232 1001 q 149 844 181 893 q 22 893 81 857 m 332 1232 l 549 1190 q 548 1180 549 1186 q 543 1152 547 1174 q 533 1108 539 1131 q 517 1053 528 1086 q 492 989 506 1021 q 459 919 479 957 q 415 844 439 881 q 289 893 331 863 q 332 1232 318 1043 z "},"„":{"ha":561,"x_min":8,"x_max":536,"o":"m 8 -106 q 50 233 38 44 l 268 192 q 266 172 268 185 q 254 121 264 160 q 231 43 244 82 q 192 -50 218 4 q 135 -154 167 -104 q 8 -106 67 -140 m 318 233 l 535 192 q 533 172 535 185 q 522 121 531 160 q 499 43 513 82 q 460 -50 485 4 q 401 -154 435 -104 q 275 -106 317 -136 q 318 233 304 44 z "},"…":{"ha":1160,"x_min":26,"x_max":1133,"o":"m 164 285 q 278 245 244 285 q 311 150 311 206 q 278 56 311 93 q 169 18 244 18 q 58 56 90 18 q 26 150 26 94 q 38 216 26 188 q 82 265 50 244 q 164 285 114 285 m 575 285 q 688 245 654 285 q 721 150 721 206 q 709 86 721 114 q 665 38 697 58 q 581 18 632 18 q 509 30 539 18 q 465 62 479 42 q 444 103 450 82 q 438 150 438 125 q 449 216 438 188 q 493 265 461 244 q 575 285 525 285 m 986 285 q 1099 245 1065 285 q 1132 150 1132 206 q 1099 56 1132 93 q 990 18 1067 18 q 880 56 911 18 q 849 150 849 94 q 860 216 849 188 q 904 265 872 244 q 986 285 936 285 z "},"‹":{"ha":440,"x_min":24,"x_max":424,"o":"m 211 353 q 424 65 306 267 q 210 65 338 46 q 24 314 58 251 l 24 393 q 210 642 75 481 q 424 642 308 660 q 211 353 299 436 z "},"›":{"ha":440,"x_min":17,"x_max":417,"o":"m 231 642 q 417 393 365 481 l 417 314 q 231 65 382 251 q 17 65 114 46 q 229 353 128 253 q 17 642 143 429 q 93 651 69 649 q 154 651 117 653 q 231 642 192 650 z "},"":{"ha":1128,"x_min":-8,"x_max":1128,"o":"m 1072 271 q 1108 21 1128 169 q 903 -1 1032 -1 q 763 13 819 -1 q 677 57 707 28 q 634 121 647 86 q 619 204 621 156 q 614 489 614 333 l 375 489 q 367 230 374 385 q 360 22 360 75 q 104 22 200 13 q 100 489 90 221 l 22 489 q 22 701 -8 604 l 111 701 q 115 776 113 742 q 126 854 118 817 q 156 933 135 892 q 207 1005 176 975 q 288 1054 238 1035 q 404 1074 339 1074 q 455 1072 429 1074 q 499 1067 481 1069 q 531 1061 517 1064 q 553 1057 546 1058 l 561 1056 q 553 807 581 938 q 458 810 528 810 q 398 781 415 810 q 379 701 381 753 l 618 701 q 632 971 622 850 q 763 987 708 988 q 886 971 818 986 q 888 701 888 882 l 1067 701 q 1067 489 1094 617 l 889 489 q 889 368 889 429 q 891 321 889 336 q 901 288 893 306 q 930 263 910 269 q 983 256 950 256 q 1029 260 1007 256 q 1061 267 1051 264 l 1072 271 z "},"":{"ha":1081,"x_min":29,"x_max":1072,"o":"m 1026 272 q 1064 22 1072 175 q 857 0 988 0 q 719 15 775 0 q 633 58 663 29 q 590 122 603 88 q 575 207 576 157 q 569 490 568 335 q 304 290 304 492 q 304 40 304 261 q 50 40 146 29 q 33 372 38 190 q 39 721 29 554 q 293 721 163 728 q 301 540 299 636 q 397 670 333 635 q 574 704 461 706 q 586 972 578 853 q 842 972 682 983 q 843 703 843 883 l 1022 703 q 1022 490 1049 604 l 843 490 q 844 369 843 431 q 846 323 844 339 q 856 290 847 307 q 885 265 865 272 q 939 258 906 258 q 984 262 963 258 q 1017 269 1006 265 l 1026 272 z "},"":{"ha":1390,"x_min":15,"x_max":1364,"o":"m 1360 489 q 1360 322 1363 439 q 1351 115 1357 206 l 1347 24 q 1082 24 1178 1 q 1076 146 1078 79 q 1074 256 1074 213 q 1075 371 1074 299 q 1076 468 1076 443 q 1065 567 1076 539 q 1024 594 1054 594 q 956 454 968 594 q 954 331 956 400 q 954 328 954 331 q 954 325 954 326 l 954 326 q 951 106 951 158 q 675 26 842 51 q 378 0 508 0 q 101 91 186 0 q 15 364 15 182 q 112 642 15 547 q 378 736 208 736 q 567 672 496 736 q 653 449 639 608 q 404 381 561 397 q 408 512 415 469 q 369 554 400 554 q 330 531 344 554 q 309 467 315 507 q 303 364 303 426 q 313 306 303 329 q 334 270 322 282 q 367 253 346 258 q 401 247 389 247 q 433 246 413 246 q 443 246 440 246 q 685 278 553 246 q 687 695 682 461 q 700 1050 692 929 q 954 1050 824 1057 q 958 656 961 919 q 1135 736 1015 736 q 1360 489 1346 736 z "},"":{"ha":1119,"x_min":-22,"x_max":1121,"o":"m 1064 272 q 1100 22 1119 165 q 894 0 1025 0 q 755 15 811 0 q 669 58 699 29 q 626 122 639 88 q 611 207 613 157 q 606 492 606 336 l 383 492 q 383 369 383 431 q 390 310 383 333 q 417 273 397 288 q 474 258 438 258 q 510 260 493 258 q 533 264 526 263 l 540 265 q 540 15 579 158 q 397 0 479 0 q 258 15 314 0 q 172 58 203 29 q 129 122 142 88 q 114 207 117 157 q 108 492 108 336 l 25 492 q 25 704 -21 615 l 113 704 q 126 972 117 853 q 381 972 222 983 q 383 704 382 883 l 610 704 q 624 972 614 853 q 878 972 718 983 q 879 704 879 883 l 1058 704 q 1058 492 1088 618 l 881 492 q 881 369 881 431 q 883 323 881 339 q 893 290 885 307 q 922 265 901 272 q 975 258 942 258 q 1021 262 999 258 q 1053 269 1043 265 l 1064 272 z "},"":{"ha":1339,"x_min":-14,"x_max":1310,"o":"m 1044 706 q 1177 715 1096 715 q 1308 706 1258 715 q 1281 15 1308 306 q 1258 -87 1275 -43 q 1206 -171 1240 -132 q 1110 -230 1171 -210 q 964 -250 1050 -250 q 863 -242 914 -250 q 773 -223 811 -235 q 703 -200 735 -211 q 657 -181 672 -189 l 640 -174 q 699 72 643 -17 q 711 65 703 69 q 746 47 719 60 q 799 24 772 33 q 862 6 825 14 q 932 -3 899 -3 q 1017 19 996 -3 q 1040 104 1039 40 q 1039 206 1040 144 q 843 110 964 110 q 738 124 781 110 q 673 170 696 139 q 640 241 650 201 q 626 340 629 281 q 625 492 625 399 l 378 492 q 378 369 378 431 q 380 323 378 339 q 390 290 382 307 q 419 265 399 272 q 472 258 439 258 q 502 260 488 258 q 527 263 517 261 q 545 267 538 265 q 557 271 553 269 l 561 272 q 597 22 604 172 q 392 0 522 0 q 253 15 310 0 q 167 58 197 29 q 124 122 136 88 q 108 207 111 157 q 104 492 103 336 l 19 492 q 19 704 -14 603 l 107 704 q 121 972 111 853 q 375 972 217 983 q 378 704 378 883 l 918 704 l 918 417 q 921 342 918 371 q 931 299 924 313 q 948 280 939 285 q 971 275 957 275 q 1021 351 1006 275 q 1036 524 1036 426 q 1044 706 1040 678 z "},"":{"ha":1396,"x_min":15,"x_max":1371,"o":"m 1367 489 q 1366 322 1369 439 q 1358 115 1363 206 l 1353 24 q 1089 24 1185 1 q 1082 146 1083 79 q 1081 256 1081 213 q 1081 371 1081 299 q 1083 468 1082 443 q 1072 567 1083 539 q 1031 594 1061 594 q 967 493 983 594 q 966 340 967 426 q 965 190 965 253 q 964 93 964 128 q 709 24 872 49 q 388 0 546 0 q 104 84 193 0 q 15 346 15 168 q 106 635 15 533 q 364 736 197 736 q 575 653 499 736 q 651 417 651 571 q 647 363 651 388 q 636 329 642 339 l 631 321 l 307 321 q 326 270 313 290 q 360 241 340 250 q 399 229 381 232 q 440 226 417 226 q 690 258 581 226 q 692 678 688 436 q 706 1050 697 921 q 961 1050 831 1057 q 968 658 968 919 q 1140 736 1024 736 q 1367 489 1353 736 m 369 554 q 307 454 319 554 l 407 454 q 369 554 432 554 z "},"":{"ha":1289,"x_min":-4,"x_max":1265,"o":"m 1258 704 q 1229 14 1264 303 q 1202 -82 1224 -37 q 1141 -166 1181 -126 q 1036 -228 1101 -206 q 886 -251 971 -251 q 777 -241 828 -251 q 683 -212 726 -231 q 601 -174 640 -194 q 509 -132 563 -154 q 403 -94 456 -110 q 408 52 389 -32 q 467 164 428 136 q 575 132 521 158 q 667 79 629 106 q 758 31 706 53 q 864 8 811 8 q 953 33 925 8 q 981 107 981 57 l 981 114 q 838 100 931 100 q 631 179 699 100 q 563 397 563 258 q 635 640 563 544 q 826 736 707 736 q 1018 640 957 736 q 1063 704 1047 689 q 1258 704 1197 710 m 939 286 q 981 292 960 286 l 981 418 q 967 563 981 521 q 917 606 954 606 q 890 597 900 606 q 872 565 879 588 q 861 508 864 543 q 858 418 858 472 q 878 322 858 357 q 939 286 897 286 m 375 701 l 542 701 q 542 489 563 631 l 372 489 q 363 231 369 386 q 356 24 356 75 q 100 24 196 13 q 96 489 86 221 l 18 489 q 18 701 -4 608 l 107 701 q 111 776 108 742 q 122 854 114 817 q 151 933 131 892 q 203 1005 172 975 q 284 1055 233 1035 q 400 1075 335 1075 q 512 1068 458 1075 q 590 1054 565 1061 l 615 1047 q 588 797 631 915 q 474 811 543 811 q 424 803 443 811 q 394 778 404 794 q 379 744 383 761 q 375 701 375 726 z "},"":{"ha":1361,"x_min":-14,"x_max":1324,"o":"m 1035 704 q 1322 704 1188 731 l 1322 24 q 1129 24 1251 8 q 1099 65 1115 38 q 1069 117 1082 93 q 1049 160 1056 142 q 1028 107 1042 132 q 990 56 1014 82 q 928 15 967 31 q 842 0 890 0 q 622 242 632 0 q 619 492 619 319 l 376 492 q 376 369 376 432 q 378 323 376 339 q 390 290 381 307 q 418 265 399 272 q 472 258 438 258 q 501 259 486 258 q 526 261 515 260 q 544 264 536 263 q 556 267 551 265 l 560 267 q 560 15 594 178 q 390 0 492 0 q 252 15 308 0 q 166 58 196 29 q 123 122 136 88 q 107 207 110 157 q 103 492 101 336 l 18 492 q 18 704 -12 608 l 106 704 q 119 972 111 853 q 375 972 215 983 q 376 704 376 883 l 910 704 l 910 364 q 920 231 910 265 q 964 196 931 196 q 1035 413 1035 196 l 1035 704 z "},"":{"ha":1318,"x_min":-12,"x_max":1289,"o":"m 1024 704 q 1156 717 1079 715 q 1289 704 1232 718 q 1260 14 1288 304 q 1236 -90 1254 -44 q 1183 -173 1218 -135 q 1085 -231 1147 -211 q 939 -251 1024 -251 q 785 -226 863 -251 q 609 -165 708 -201 q 410 -108 510 -128 q 416 22 394 -68 q 475 135 438 111 q 566 113 513 133 q 667 70 619 93 q 776 28 714 47 q 889 8 838 8 q 990 26 960 8 q 1019 103 1019 43 q 1019 204 1019 143 q 824 108 943 108 q 718 123 760 108 q 653 169 676 138 q 619 240 629 200 q 607 339 610 279 q 606 489 604 397 l 376 489 q 367 231 374 386 q 360 24 361 75 q 106 24 200 13 q 100 489 90 221 l 22 489 q 22 701 -11 586 l 111 701 q 115 776 114 742 q 128 854 119 817 q 156 933 136 892 q 207 1005 176 975 q 288 1055 238 1035 q 404 1075 339 1075 q 517 1068 463 1075 q 596 1054 571 1061 l 621 1047 q 592 797 651 919 q 478 811 547 811 q 401 783 421 811 q 379 701 381 754 l 897 701 l 897 415 q 900 340 897 368 q 910 297 903 311 q 927 278 918 282 q 951 274 936 274 q 1001 349 985 274 q 1017 522 1017 424 q 1024 704 1021 675 z "},"":{"ha":1526,"x_min":31,"x_max":1497,"o":"m 1232 704 q 1368 719 1285 719 q 1496 704 1451 719 q 1468 14 1496 304 q 1370 -178 1457 -104 q 1117 -251 1283 -251 q 965 -238 1043 -251 q 826 -207 886 -225 q 717 -170 767 -189 q 643 -139 668 -151 l 617 -125 q 736 108 640 11 q 758 96 744 103 q 815 69 772 89 q 899 35 857 50 q 996 8 940 19 q 1099 -4 1051 -4 q 1200 18 1172 -4 q 1228 103 1228 40 q 1226 204 1228 143 q 1031 108 1151 108 q 926 123 968 108 q 861 169 885 138 q 827 240 838 200 q 815 339 817 279 q 813 493 813 413 q 815 638 814 574 l 817 701 q 1106 701 996 735 l 1106 415 q 1108 340 1106 368 q 1119 297 1111 311 q 1135 278 1126 282 q 1158 274 1144 274 q 1209 349 1193 274 q 1225 522 1225 424 q 1232 704 1228 675 m 736 385 q 719 229 736 299 q 667 105 703 160 q 568 20 631 50 q 419 -10 506 -10 q 297 3 356 -10 q 278 -278 288 -175 q 244 -281 268 -279 q 212 -283 221 -282 q 184 -284 203 -283 q 153 -285 165 -285 q 124 -284 142 -285 q 88 -282 106 -283 q 49 -278 69 -281 q 33 234 32 -82 q 56 704 35 550 q 233 704 154 715 q 272 628 243 686 q 492 736 333 736 q 676 649 617 736 q 736 385 736 561 m 374 171 q 427 217 413 171 q 442 364 442 264 q 433 560 442 514 q 394 606 425 606 q 351 580 368 606 q 324 495 333 554 q 311 340 314 436 q 307 186 310 265 q 374 171 350 171 z "},"":{"ha":1539,"x_min":31,"x_max":1515,"o":"m 1507 706 q 1479 15 1514 306 q 1450 -80 1472 -35 q 1387 -164 1428 -125 q 1279 -226 1346 -203 q 1129 -250 1213 -250 q 1012 -242 1071 -250 q 904 -219 953 -233 q 810 -190 856 -206 q 730 -157 764 -174 q 670 -127 696 -140 q 631 -106 644 -114 l 618 -97 q 742 115 657 47 q 762 103 749 111 q 816 74 775 94 q 899 39 857 54 q 998 10 940 24 q 1107 -3 1056 -3 q 1199 28 1168 -3 q 1231 110 1231 58 l 1231 115 q 1088 101 1181 101 q 932 140 994 101 q 841 243 869 178 q 813 399 813 308 q 885 642 813 546 q 1076 738 957 738 q 1267 643 1206 738 q 1313 706 1297 690 q 1507 706 1447 711 m 1231 293 l 1231 419 q 1217 565 1231 524 q 1167 607 1204 607 q 1139 598 1150 607 q 1121 567 1128 589 q 1110 510 1114 546 q 1107 419 1107 474 q 1127 324 1107 360 q 1189 288 1147 288 q 1231 293 1208 288 m 736 386 q 719 231 736 300 q 667 107 703 161 q 568 22 631 53 q 419 -8 506 -8 q 297 4 356 -8 q 278 -276 288 -174 q 244 -278 268 -276 q 212 -281 221 -281 q 184 -282 203 -281 q 153 -283 165 -283 q 124 -282 142 -282 q 88 -281 106 -282 q 49 -276 69 -279 q 33 236 32 -79 q 56 706 35 551 q 233 706 154 717 q 272 629 243 689 q 492 739 333 739 q 676 651 617 739 q 736 386 736 564 m 374 172 q 427 219 413 172 q 442 365 442 265 q 433 562 442 515 q 394 608 425 608 q 351 582 368 608 q 324 497 333 556 q 311 342 314 438 q 307 189 310 267 q 374 172 350 172 z "},"":{"ha":1356,"x_min":15,"x_max":1349,"o":"m 1151 414 q 1159 413 1154 414 q 1180 405 1164 411 q 1209 390 1196 399 q 1243 365 1222 381 q 1278 329 1264 350 q 1308 279 1292 308 q 1331 213 1325 250 q 1342 129 1338 176 q 1338 25 1347 82 q 1078 25 1219 -4 q 1079 35 1079 29 q 1080 59 1079 40 q 1080 96 1081 78 q 1077 139 1079 114 q 1071 185 1075 164 q 1058 229 1067 207 q 1039 267 1050 251 q 1011 295 1028 283 q 974 308 994 307 q 971 131 971 182 q 684 38 856 72 q 389 3 513 3 q 15 365 15 3 q 112 644 15 549 q 378 739 208 739 q 567 674 496 739 q 653 450 639 610 l 404 383 q 408 513 415 471 q 369 556 400 556 q 330 532 344 556 q 309 468 315 508 q 303 365 303 428 q 308 313 303 336 q 326 277 314 290 q 349 256 338 264 q 377 244 360 247 q 405 240 394 240 q 431 239 415 239 q 703 278 568 239 q 706 687 700 451 q 719 1051 711 922 q 974 1051 843 1060 q 976 521 982 892 q 1071 739 1060 571 q 1307 710 1222 760 q 1306 688 1307 701 q 1298 633 1306 674 q 1276 558 1290 593 q 1230 481 1263 522 q 1151 414 1197 440 z "},"":{"ha":1364,"x_min":15,"x_max":1356,"o":"m 1160 414 q 1167 413 1163 414 q 1188 405 1172 411 q 1217 390 1203 399 q 1251 365 1231 381 q 1285 329 1271 350 q 1315 279 1299 308 q 1339 213 1332 250 q 1351 129 1346 176 q 1346 25 1356 82 q 1086 25 1200 -21 q 1087 40 1086 31 q 1088 78 1088 50 q 1085 133 1088 107 q 1076 190 1083 158 q 1058 247 1069 222 q 1027 288 1047 271 q 981 308 1007 306 q 978 131 978 182 q 685 38 853 72 q 414 3 517 3 q 225 26 303 3 q 101 97 147 49 q 35 210 56 144 q 15 365 15 275 q 106 645 15 551 q 364 739 196 739 q 575 656 499 739 q 651 418 651 574 q 647 365 651 389 q 636 332 642 342 l 631 322 l 306 322 q 333 258 313 282 q 378 228 354 235 q 439 222 403 222 q 711 268 578 222 q 713 681 707 442 q 726 1051 718 921 q 982 1051 851 1060 q 985 521 990 892 q 1079 739 1068 571 q 1314 710 1224 758 q 1315 688 1315 701 q 1306 633 1314 674 q 1284 558 1299 593 q 1237 481 1269 522 q 1160 414 1204 440 m 369 556 q 307 457 319 556 l 407 456 q 369 556 432 556 z "},"":{"ha":1303,"x_min":-19,"x_max":1276,"o":"m 1268 483 q 1274 361 1272 414 q 1276 259 1276 308 q 1274 186 1275 210 q 1271 106 1274 163 q 1267 28 1268 50 q 1233 25 1254 26 q 1203 23 1213 24 q 1177 22 1193 22 q 1150 21 1161 21 q 1122 22 1139 21 q 1088 24 1106 22 q 1049 28 1071 25 q 1043 114 1046 68 q 950 35 1010 67 q 821 3 890 3 q 638 201 638 3 q 699 376 638 308 q 856 444 761 444 q 1022 419 926 444 q 1022 428 1022 428 q 997 489 1017 469 q 925 508 978 508 q 760 502 888 508 q 543 494 632 496 l 543 493 l 381 493 q 381 372 381 433 q 383 325 381 340 q 394 292 385 310 q 422 267 403 275 q 476 260 442 260 q 505 262 490 260 q 530 266 519 264 q 548 270 540 268 q 560 274 556 272 l 564 275 q 601 25 607 192 q 394 3 525 3 q 256 17 313 3 q 170 61 200 32 q 127 125 140 90 q 111 208 114 160 q 107 493 106 338 l 22 493 q 22 706 -19 594 l 110 706 q 124 975 115 856 q 379 975 219 985 q 381 706 381 886 l 467 706 q 762 717 614 706 q 999 729 910 729 q 1193 659 1125 729 q 1268 483 1261 589 m 979 171 q 1016 224 1007 171 q 1019 329 1025 278 q 988 347 1008 347 q 944 239 944 347 q 979 171 944 171 z "},"":{"ha":1049,"x_min":0,"x_max":1038,"o":"m 1038 706 q 985 545 1038 617 q 832 467 932 474 q 963 395 915 458 q 1010 257 1010 332 q 975 142 1010 190 q 877 65 940 93 q 735 23 814 36 q 560 10 657 10 q 399 17 460 10 q 397 18 399 17 q 299 29 349 22 q 226 40 250 36 l 201 44 q 249 267 192 182 q 388 240 344 249 q 383 754 381 475 q 283 718 318 747 q 249 625 249 689 q 258 577 249 597 q 281 547 268 557 q 308 532 294 538 q 331 525 321 526 l 339 524 q 274 321 335 415 q 258 324 268 322 q 219 335 247 326 q 165 358 192 344 q 108 396 139 371 q 53 451 76 421 q 15 526 31 481 q 0 624 0 571 q 40 780 0 713 q 149 885 79 847 q 302 942 218 924 q 483 960 386 960 q 492 960 486 960 q 562 960 536 960 q 638 958 588 960 q 719 951 688 956 q 798 938 751 947 q 874 917 844 929 q 938 885 904 904 q 992 840 972 865 q 1024 781 1011 815 q 1038 706 1038 747 m 661 203 q 672 204 665 203 q 695 213 678 206 q 726 231 713 221 q 749 262 739 242 q 760 307 760 282 q 750 353 760 335 q 725 377 740 371 q 695 385 710 383 q 671 386 681 388 l 661 385 q 661 203 650 269 m 656 533 q 669 533 661 533 q 695 540 676 533 q 729 559 714 547 q 756 599 744 571 q 768 664 768 626 q 756 720 768 697 q 728 752 744 743 q 696 766 713 761 q 668 769 679 771 l 656 768 q 656 533 650 594 z "},"":{"ha":1032,"x_min":-1,"x_max":1038,"o":"m 810 958 q 1038 13 939 549 q 753 13 893 -14 q 704 207 733 65 q 517 207 599 203 q 431 -172 464 -33 q 208 -172 319 -192 q 413 747 340 469 q 283 713 329 742 q 238 618 238 685 q 252 551 238 581 q 282 511 267 522 l 297 501 q 221 326 278 393 q 197 333 213 328 q 144 361 182 339 q 76 414 106 383 q 24 501 47 444 q 0 626 0 557 q 18 740 0 689 q 68 826 36 790 q 149 890 100 863 q 251 933 197 917 q 376 958 306 949 q 513 972 446 968 q 663 975 579 975 q 810 958 760 978 m 557 397 q 668 397 614 400 q 617 685 624 649 q 557 397 594 572 z "},"":{"ha":926,"x_min":0,"x_max":919,"o":"m 911 724 q 638 724 803 715 l 638 607 q 838 607 706 613 l 838 415 q 768 411 819 414 q 699 408 717 408 q 638 408 681 407 q 639 369 639 382 q 638 324 639 357 q 638 265 638 290 q 860 251 779 265 q 860 14 865 121 q 386 14 653 4 q 369 740 364 297 q 271 702 306 732 q 236 607 236 672 q 247 556 236 579 q 272 517 257 532 q 303 491 288 501 q 329 475 318 481 l 339 471 q 264 283 329 376 q 255 285 261 283 q 231 292 249 286 q 195 306 213 299 q 154 328 178 314 q 110 360 131 343 q 69 401 90 376 q 33 453 47 425 q 9 518 18 481 q 0 597 0 556 q 44 763 0 692 q 165 878 88 835 q 342 943 243 921 q 561 967 442 965 q 911 960 731 968 q 911 724 918 819 z "},"":{"ha":928,"x_min":0,"x_max":1033,"o":"m 1008 736 q 651 703 910 692 q 651 565 657 629 l 853 565 q 853 350 861 428 q 651 343 774 339 q 647 135 657 218 q 568 -90 632 3 q 374 -240 504 -182 q 204 -61 258 -178 q 223 -55 211 -60 q 264 -31 235 -50 q 316 14 293 -11 q 358 85 339 39 q 378 186 376 132 q 381 456 382 306 q 381 721 379 606 q 274 684 311 714 q 236 586 236 654 q 247 535 236 558 q 272 496 257 511 q 303 470 288 481 q 329 454 318 460 l 339 450 q 264 263 322 344 q 249 266 258 264 q 213 279 240 268 q 160 304 185 290 q 104 344 135 318 q 52 401 74 369 q 15 478 31 432 q 0 576 0 524 q 46 744 0 672 q 173 860 92 817 q 356 924 254 903 q 576 946 457 946 q 720 946 650 947 q 874 947 790 944 q 1013 958 958 950 q 1008 736 1032 878 z "},"":{"ha":824,"x_min":15,"x_max":803,"o":"m 778 539 q 792 237 801 374 q 758 -3 783 100 q 688 -185 732 -107 q 596 -313 643 -264 q 496 -392 549 -362 q 328 -183 371 -311 q 517 40 449 -97 q 561 271 585 176 q 553 196 561 232 q 528 124 546 160 q 485 63 511 89 q 419 22 460 38 q 325 6 378 6 q 15 504 15 6 q 130 876 15 749 q 429 1003 244 1003 q 531 997 488 1003 q 618 973 574 992 q 695 922 663 954 q 756 835 728 889 q 803 706 783 781 q 503 604 682 653 q 411 708 496 708 q 331 661 354 708 q 303 515 307 614 q 325 350 300 407 q 421 293 350 293 q 492 317 460 293 q 533 375 525 340 l 414 383 q 418 539 407 453 q 778 539 599 549 z "},"":{"ha":1143,"x_min":0,"x_max":1117,"o":"m 829 14 q 822 363 825 192 q 676 363 750 361 q 672 199 676 361 q 650 73 672 133 q 592 -32 628 13 q 514 -115 557 -76 q 428 -177 471 -153 q 349 -219 385 -201 q 292 -246 314 -237 l 269 -254 q 179 -6 181 -131 q 340 78 279 14 q 394 240 400 142 q 394 736 389 493 q 283 700 322 729 q 243 608 243 671 q 253 564 243 585 q 279 530 264 543 q 309 507 294 517 q 335 493 324 497 l 346 489 q 264 283 326 385 q 255 285 261 283 q 231 292 249 286 q 195 307 213 299 q 154 329 178 315 q 110 360 131 343 q 69 401 90 376 q 33 453 47 425 q 9 518 18 481 q 0 597 0 556 q 40 763 0 692 q 153 878 81 835 q 322 944 226 922 q 533 967 417 965 q 534 967 533 967 q 536 967 535 967 q 540 967 538 967 l 543 967 q 546 967 544 967 q 548 967 547 967 q 549 967 549 967 q 551 967 550 967 q 668 960 613 967 q 678 589 676 799 q 819 590 754 590 q 829 960 821 800 q 1094 960 1015 974 q 1094 14 1115 769 q 829 14 1007 4 z "},"":{"ha":733,"x_min":1,"x_max":703,"o":"m 688 99 q 670 -21 688 36 q 624 -119 653 -78 q 560 -194 594 -160 q 490 -251 525 -229 q 427 -290 456 -274 q 381 -312 399 -306 l 363 -318 q 238 -106 247 -207 q 257 -94 244 -101 q 301 -60 269 -86 q 358 -3 333 -33 q 402 78 382 28 q 422 181 422 128 q 420 443 422 274 q 418 718 418 613 q 290 684 335 713 q 244 588 244 656 q 255 543 244 564 q 281 509 265 522 q 310 486 296 496 q 336 472 325 476 l 347 468 q 265 263 347 361 q 256 264 263 263 q 232 272 250 265 q 197 286 214 278 q 156 308 179 294 q 112 339 132 322 q 70 380 92 356 q 34 432 49 404 q 10 497 19 460 q 1 576 1 535 q 44 744 1 672 q 165 859 88 817 q 340 923 242 901 q 558 944 439 944 q 688 940 621 943 q 688 99 703 675 z "},"":{"ha":917,"x_min":0,"x_max":932,"o":"m 418 -6 q 411 717 401 233 q 288 683 332 711 q 244 588 244 654 q 255 543 244 564 q 281 509 265 522 q 310 486 296 496 q 336 472 325 476 l 347 468 q 265 263 342 369 q 256 264 263 263 q 232 272 250 265 q 197 285 214 278 q 156 308 179 293 q 112 339 132 322 q 70 380 92 356 q 34 432 49 404 q 10 497 19 460 q 1 576 1 535 q 44 745 1 672 q 165 861 88 818 q 342 926 243 904 q 561 947 442 947 q 683 940 628 947 q 693 251 700 569 q 915 251 831 257 q 915 -6 931 132 q 418 -6 717 -15 z "},"":{"ha":1421,"x_min":0,"x_max":1401,"o":"m 1097 21 q 1089 511 1083 196 l 967 50 q 732 50 831 38 l 589 517 q 588 376 588 428 q 590 258 589 324 q 590 161 590 192 q 572 24 590 88 q 526 -79 553 -40 q 474 -147 500 -118 q 428 -186 447 -175 l 410 -197 q 257 -43 294 -136 q 344 54 317 -1 q 372 194 372 110 q 379 735 371 464 q 278 697 314 726 q 243 608 243 668 q 253 564 243 585 q 279 530 264 543 q 309 507 294 517 q 335 493 324 497 l 346 489 q 264 283 343 374 q 255 285 261 283 q 231 292 249 286 q 195 307 213 299 q 154 329 178 315 q 110 360 131 343 q 69 401 90 376 q 33 453 47 425 q 9 518 18 481 q 0 597 0 556 q 44 765 0 693 q 168 881 89 838 q 347 945 247 924 q 567 967 447 967 l 568 967 q 724 961 646 965 q 810 727 758 879 q 893 463 861 575 q 958 697 911 540 q 1043 961 1006 853 q 1364 961 1190 974 q 1378 17 1400 479 q 1097 21 1264 8 z "},"":{"ha":1215,"x_min":-1,"x_max":1190,"o":"m 847 17 l 632 488 q 632 206 632 424 q 622 92 632 146 q 594 -2 611 38 q 556 -75 576 -42 q 516 -131 536 -108 q 478 -168 496 -153 q 451 -190 461 -183 l 440 -197 q 286 -43 308 -124 q 377 60 351 -4 q 403 224 403 125 q 407 738 400 519 q 286 703 329 732 q 243 608 243 674 q 253 564 243 585 q 279 530 264 543 q 309 507 294 517 q 335 493 324 497 l 346 489 q 264 283 349 383 q 255 285 261 283 q 231 292 249 286 q 195 307 213 299 q 154 329 178 315 q 110 360 131 343 q 69 401 90 376 q 33 453 47 425 q 9 518 18 481 q 0 597 0 556 q 47 765 0 693 q 175 881 93 838 q 359 945 257 924 q 582 967 461 967 q 733 961 653 967 q 849 720 782 875 q 946 458 915 565 q 950 963 939 703 l 1169 963 q 1158 17 1189 450 q 996 10 1089 10 q 847 17 903 10 z "},"":{"ha":1024,"x_min":0,"x_max":1021,"o":"m 232 -24 q 344 51 311 -1 q 378 183 378 103 q 379 714 376 490 q 308 695 336 708 q 261 655 279 682 q 243 588 243 628 q 253 543 243 564 q 279 509 264 522 q 309 486 294 496 q 335 472 324 476 l 346 468 q 264 263 340 357 q 255 264 261 263 q 231 272 249 265 q 195 286 213 278 q 154 308 178 294 q 110 339 131 322 q 69 380 90 356 q 33 432 47 404 q 9 497 18 460 q 0 576 0 535 q 55 747 0 671 q 201 869 110 824 q 403 939 292 915 q 633 963 514 963 q 838 930 753 963 q 972 824 924 897 q 1021 642 1021 750 q 1003 509 1021 572 q 953 393 986 446 q 865 309 921 340 q 738 278 808 278 q 654 283 701 278 q 654 165 654 217 q 638 47 654 101 q 596 -47 622 -8 q 539 -115 569 -85 q 477 -165 508 -146 q 420 -196 446 -183 q 378 -214 394 -208 l 361 -218 q 232 -24 238 -112 m 782 626 q 769 685 782 660 q 737 722 756 710 q 700 740 718 733 q 668 749 682 747 l 656 750 l 658 506 q 699 503 678 500 q 740 514 721 506 q 770 551 758 522 q 782 626 782 581 z "},"":{"ha":896,"x_min":14,"x_max":1007,"o":"m 875 490 q 783 224 875 324 q 532 124 692 124 q 783 58 656 119 q 1007 -86 911 -4 q 958 -208 1007 -133 q 860 -314 908 -282 q 636 -166 757 -225 q 290 -24 515 -107 q 78 151 143 31 q 14 451 14 272 q 42 665 14 571 q 126 826 71 760 q 265 928 181 893 q 458 963 349 963 q 760 838 644 963 q 875 490 875 714 m 453 229 q 556 295 518 229 q 589 471 594 361 q 547 631 583 567 q 439 694 511 694 q 335 626 369 694 q 296 454 300 558 q 313 338 293 389 q 369 258 332 286 q 453 229 406 229 z "},"":{"ha":1083,"x_min":0,"x_max":1069,"o":"m 1069 13 q 775 13 913 -6 q 777 31 776 19 q 779 78 778 43 q 779 147 781 114 q 771 221 778 179 q 752 294 764 263 q 717 352 740 326 q 663 388 693 378 q 663 243 663 306 q 651 97 663 167 q 620 -24 639 26 q 578 -116 601 -74 q 531 -185 554 -158 q 490 -230 508 -211 q 458 -257 471 -249 l 447 -265 q 264 -69 300 -157 q 363 48 335 -28 q 385 243 390 124 q 386 729 379 413 q 308 707 339 721 q 256 664 276 693 q 235 592 235 635 q 246 547 235 568 q 272 513 257 526 q 301 490 286 500 q 326 476 317 481 l 338 472 q 257 263 329 367 q 228 272 246 265 q 167 306 211 279 q 90 367 124 333 q 28 463 56 401 q 0 597 0 525 q 39 753 0 685 q 141 864 78 821 q 292 935 204 907 q 468 973 379 963 q 656 983 557 983 q 953 910 864 983 q 1043 685 1043 838 q 998 553 1043 610 q 882 471 953 496 q 1022 335 975 443 q 1069 13 1069 228 m 663 522 q 714 532 689 518 q 756 576 739 546 q 774 643 774 606 q 767 690 774 669 q 751 724 761 711 q 730 747 742 738 q 706 761 718 757 q 685 767 694 765 q 668 771 675 769 l 663 771 l 663 522 z "},"":{"ha":968,"x_min":3,"x_max":1081,"o":"m 414 960 q 587 962 481 961 q 753 963 693 963 q 893 969 813 964 q 1044 983 974 974 q 1044 742 1079 913 q 744 719 929 725 q 745 458 746 681 q 744 183 744 235 q 728 57 744 117 q 684 -45 711 -3 q 624 -124 657 -87 q 559 -183 592 -160 q 499 -221 526 -206 q 456 -243 472 -236 l 439 -250 q 278 -26 279 -125 q 428 72 385 0 q 472 263 472 144 q 472 715 472 631 l 472 715 q 469 715 471 715 q 467 715 468 715 q 410 717 439 715 q 291 683 324 713 q 258 599 258 654 q 270 541 258 567 q 299 500 282 515 q 333 474 315 485 q 363 461 350 464 l 374 457 q 272 258 364 342 q 243 269 261 263 q 178 303 225 276 q 97 364 132 331 q 32 456 61 397 q 3 583 3 515 q 111 849 3 750 q 414 958 219 949 q 414 960 414 960 z "},"":{"ha":1175,"x_min":1,"x_max":1150,"o":"m 853 979 q 1140 979 1035 1025 q 1143 863 1142 932 q 1147 611 1144 793 q 1142 372 1149 429 q 1111 208 1135 276 q 1042 95 1088 140 q 932 29 997 50 q 778 8 867 8 q 484 82 572 8 q 382 324 396 156 q 376 608 376 397 q 376 628 376 610 q 376 654 376 647 q 374 678 375 661 q 370 704 374 696 q 362 724 367 713 q 349 740 357 735 q 328 744 340 744 q 249 628 249 744 q 254 589 249 607 q 267 557 260 571 q 285 531 275 543 q 304 512 294 519 q 322 499 314 504 q 335 490 331 493 l 340 489 q 233 299 325 369 q 208 309 224 303 q 153 342 193 315 q 82 401 113 368 q 26 492 51 433 q 1 618 1 550 q 42 803 1 722 q 172 934 83 885 q 389 983 261 983 q 592 901 517 983 q 667 701 667 818 q 674 411 668 547 q 767 296 678 296 q 853 429 850 296 l 853 979 z "},"":{"ha":1157,"x_min":3,"x_max":1167,"o":"m 796 311 q 944 954 868 690 q 1167 954 1069 985 q 1129 803 1156 908 q 1092 654 1103 697 q 1060 524 1082 611 q 1026 394 1038 438 q 997 283 1015 351 q 965 173 978 215 q 938 83 953 131 q 908 -3 922 35 q 579 -3 724 -18 q 417 568 503 224 q 412 590 417 569 q 404 621 407 611 q 394 651 401 631 q 380 682 388 671 q 363 706 372 693 q 339 726 353 719 q 308 732 325 732 q 240 628 240 732 q 253 567 240 596 q 286 519 267 538 q 324 485 306 500 q 356 464 343 471 l 369 457 q 274 247 365 347 q 264 251 269 249 q 240 261 258 253 q 203 279 221 269 q 160 306 185 289 q 115 342 136 322 q 73 389 94 361 q 37 447 51 417 q 13 518 22 478 q 3 603 3 558 q 25 747 3 681 q 92 868 47 814 q 213 953 136 922 q 390 983 289 983 q 515 960 458 983 q 603 906 571 938 q 661 827 636 874 q 697 749 686 781 q 715 679 707 717 q 753 515 721 651 q 796 311 785 379 z "},"":{"ha":1533,"x_min":3,"x_max":1531,"o":"m 1285 956 q 1531 956 1418 965 q 1496 703 1517 840 q 1460 481 1475 567 q 1415 232 1444 396 q 1375 17 1385 68 q 1061 17 1210 7 q 932 406 999 167 q 899 292 922 354 q 842 150 876 231 q 790 17 808 69 q 522 17 667 6 q 456 356 492 143 q 417 588 421 568 q 406 641 410 626 q 396 682 403 656 q 383 717 389 708 q 367 740 378 726 q 344 756 357 753 q 313 760 331 760 q 276 747 292 760 q 250 709 260 735 q 240 647 240 683 q 253 586 240 615 q 286 538 267 557 q 324 505 306 519 q 356 483 343 490 l 369 476 q 274 267 360 382 q 264 270 269 268 q 240 281 258 272 q 203 299 221 289 q 160 325 185 308 q 115 361 136 342 q 73 408 94 381 q 37 467 51 436 q 13 538 22 497 q 3 622 3 578 q 22 767 3 701 q 81 887 40 832 q 194 972 121 942 q 368 1003 268 1003 q 626 924 539 1003 q 738 711 714 844 q 776 414 767 531 l 886 729 q 1119 729 1021 743 l 1217 438 q 1285 956 1243 764 z "},"":{"ha":1172,"x_min":3,"x_max":1182,"o":"m 1146 958 q 944 501 1054 722 q 1182 13 1138 129 q 836 13 986 4 q 701 300 775 129 q 575 18 624 107 q 322 24 461 -4 q 387 171 340 64 q 468 352 433 278 q 546 510 503 426 q 518 578 535 535 q 492 642 501 621 q 467 691 483 663 q 437 733 451 719 q 399 756 422 746 q 347 765 376 765 q 274 733 303 765 q 246 647 246 701 q 256 592 246 618 q 281 547 265 565 q 316 512 297 528 q 353 485 335 496 q 388 467 372 475 q 414 457 404 460 l 424 454 q 328 244 415 349 q 316 249 324 246 q 287 260 308 251 q 244 280 265 269 q 192 309 222 290 q 138 348 163 328 q 87 397 113 368 q 43 458 61 426 q 14 530 25 489 q 3 614 3 571 q 22 760 3 693 q 83 883 42 826 q 199 971 125 939 q 374 1003 274 1003 q 494 991 440 1003 q 589 958 549 979 q 665 899 629 936 q 728 821 701 861 q 789 719 756 781 q 908 961 815 781 q 1146 958 1063 971 z "},"":{"ha":1036,"x_min":-1,"x_max":1053,"o":"m 751 963 q 922 967 818 967 q 1053 963 1026 967 q 796 403 886 556 l 796 13 q 531 13 693 3 q 538 417 521 122 q 490 510 518 453 q 447 600 463 567 q 407 674 431 633 q 365 738 383 715 q 324 776 347 760 q 278 792 301 792 q 249 783 261 792 q 231 761 236 774 q 226 733 226 749 q 242 674 226 704 q 278 624 257 644 q 322 585 300 603 q 358 560 343 568 l 374 550 q 268 358 367 447 q 252 364 261 360 q 215 382 243 368 q 161 413 186 396 q 105 458 136 429 q 51 520 74 488 q 14 600 29 553 q -1 700 -1 647 q 78 914 -1 833 q 313 994 158 994 q 430 974 381 994 q 516 910 479 954 q 579 810 553 865 q 635 667 606 754 q 751 963 656 742 z "},"":{"ha":946,"x_min":14,"x_max":951,"o":"m 475 165 q 549 178 513 165 q 613 212 585 192 q 665 258 640 232 q 706 308 689 283 q 736 354 724 333 q 754 388 749 375 l 760 400 q 950 249 874 371 q 756 11 872 90 q 471 -68 639 -68 q 131 51 247 -68 q 14 375 14 169 q 110 653 14 558 q 376 749 207 749 q 566 684 494 749 q 651 460 638 619 q 403 393 583 394 q 406 523 414 481 q 368 565 399 565 q 328 542 343 565 q 308 478 314 518 q 301 375 301 438 q 346 222 301 278 q 475 165 390 165 z "},"":{"ha":775,"x_min":17,"x_max":865,"o":"m 699 224 q 746 40 700 115 q 860 -68 792 -35 q 821 -186 864 -125 q 722 -265 778 -247 q 587 -178 643 -226 q 501 -78 531 -131 q 459 20 472 -25 q 440 118 446 65 q 274 11 389 11 q 127 53 185 11 q 43 176 69 96 q 17 375 17 256 q 97 650 17 551 q 285 749 176 749 q 426 675 388 749 q 436 1061 426 875 q 690 1061 560 1068 q 693 878 692 1022 q 696 531 694 733 q 699 224 697 328 m 372 168 q 394 175 385 168 q 410 198 404 182 q 421 231 417 214 q 426 274 425 247 q 428 322 428 300 q 429 375 429 343 q 429 403 429 389 q 428 439 429 406 q 412 553 425 514 q 365 592 399 592 q 317 535 331 592 q 304 375 304 478 q 318 219 304 269 q 372 168 332 168 z "},"":{"ha":957,"x_min":15,"x_max":963,"o":"m 474 188 q 640 244 561 188 q 765 407 719 301 q 963 276 879 411 q 862 119 921 183 q 730 19 803 54 q 581 -31 657 -15 q 411 -46 504 -46 q 111 60 206 -46 q 17 375 17 165 q 107 654 17 560 q 365 749 197 749 q 576 666 500 749 q 653 428 653 583 q 648 375 653 399 q 638 342 643 351 l 632 332 q 307 332 428 308 q 474 188 325 188 m 371 565 q 308 467 321 565 q 407 465 354 475 q 371 565 433 565 z "},"":{"ha":1057,"x_min":33,"x_max":1056,"o":"m 815 211 q 1044 247 904 272 q 1049 224 1046 239 q 1053 164 1051 208 q 1051 79 1056 119 q 1027 -10 1046 39 q 975 -94 1008 -58 q 881 -153 942 -129 q 739 -178 821 -178 q 502 -85 578 -178 q 425 171 426 7 q 426 460 425 178 q 417 558 428 531 q 374 586 406 586 q 307 449 319 586 q 304 317 306 386 q 300 17 300 67 q 46 17 142 7 q 37 522 35 167 q 50 1042 39 876 q 304 1042 174 1049 q 310 647 311 918 q 485 729 365 729 q 711 481 697 729 q 704 143 715 400 q 761 42 699 42 q 812 77 803 42 q 815 211 821 113 z "},"":{"ha":1018,"x_min":33,"x_max":1018,"o":"m 763 286 q 847 284 792 293 q 951 256 903 275 q 1006 218 999 236 q 1017 115 1017 168 q 995 9 1017 61 q 940 -85 974 -43 q 853 -152 907 -126 q 733 -178 799 -178 q 635 -169 678 -178 q 559 -139 592 -160 q 504 -93 526 -118 q 463 -28 482 -68 q 433 50 444 13 q 406 144 421 88 q 403 157 406 149 q 392 199 396 185 q 379 234 388 213 q 362 267 371 256 q 338 288 353 278 q 304 299 324 297 q 300 17 300 68 q 46 17 142 7 q 37 522 35 167 q 50 1042 39 876 q 304 1042 174 1049 q 307 511 313 890 q 401 729 390 561 l 638 700 q 637 677 638 692 q 628 623 636 663 q 607 547 621 583 q 560 470 593 511 q 482 404 528 429 q 497 401 488 403 q 533 387 507 399 q 580 358 558 375 q 623 303 601 340 q 653 221 644 267 q 658 194 656 211 q 663 167 661 178 q 667 142 664 157 q 674 119 671 128 q 683 99 678 110 q 693 83 688 89 q 706 72 699 76 q 724 68 714 68 q 763 286 796 68 z "},"":{"ha":682,"x_min":31,"x_max":679,"o":"m 425 233 q 658 274 500 285 q 674 204 669 247 q 676 108 678 161 q 654 2 674 56 q 603 -97 635 -51 q 514 -169 572 -142 q 379 -197 456 -197 q 260 -183 313 -197 q 172 -145 207 -168 q 110 -87 136 -122 q 71 -19 85 -51 q 49 58 57 14 q 38 133 40 103 q 35 203 36 163 q 35 619 32 314 q 44 1022 38 924 q 299 1022 168 1031 q 303 776 303 944 q 303 410 304 608 q 303 179 303 211 q 306 126 303 149 q 316 81 308 104 q 340 47 324 58 q 379 35 356 35 q 425 70 411 35 q 438 150 439 106 q 425 233 436 194 z "},"":{"ha":1453,"x_min":28,"x_max":1450,"o":"m 1197 251 q 1429 292 1282 307 q 1445 222 1440 265 q 1447 126 1450 179 q 1426 20 1444 74 q 1375 -78 1407 -33 q 1285 -151 1343 -124 q 1150 -179 1226 -179 q 1003 -159 1067 -179 q 903 -102 940 -139 q 842 -16 867 -65 q 810 91 818 33 q 798 213 803 149 q 796 343 793 278 q 796 472 799 408 q 794 518 794 504 q 789 547 793 532 q 777 567 785 563 q 756 571 769 571 q 706 523 719 571 q 693 385 693 475 q 691 291 693 344 q 687 191 689 238 q 683 103 685 144 q 679 38 681 63 l 678 14 q 414 14 531 -3 q 408 458 406 147 q 405 529 408 506 q 393 562 401 553 q 368 571 385 571 q 346 564 356 571 q 330 540 336 557 q 319 504 324 522 q 311 456 314 486 q 307 400 308 425 q 304 335 306 375 q 303 155 304 267 q 303 14 303 43 q 49 14 217 1 q 38 694 28 242 q 229 694 126 700 q 251 655 235 685 q 275 608 267 625 q 499 728 335 728 q 667 608 622 728 q 713 667 685 642 q 786 710 742 693 q 885 728 831 728 q 976 709 938 728 q 1033 666 1014 690 q 1064 601 1053 642 q 1077 533 1075 561 q 1079 464 1079 504 q 1078 422 1079 456 q 1077 355 1078 389 q 1076 276 1076 321 q 1081 194 1076 232 q 1092 124 1085 157 q 1113 72 1099 90 q 1146 53 1126 53 q 1185 74 1169 53 q 1204 126 1200 94 q 1206 190 1208 157 q 1197 251 1204 224 z "},"":{"ha":1081,"x_min":24,"x_max":1076,"o":"m 824 272 q 1056 313 908 329 q 1072 243 1067 286 q 1074 147 1076 200 q 1052 41 1071 94 q 1002 -58 1033 -12 q 913 -131 971 -103 q 778 -158 854 -158 q 644 -140 703 -158 q 550 -87 586 -121 q 488 -9 514 -54 q 450 88 461 36 q 432 197 439 140 q 426 310 425 254 q 428 419 428 367 q 428 479 428 460 q 418 578 429 550 q 375 606 407 606 q 301 351 292 606 q 308 35 308 167 q 54 35 149 24 q 32 715 25 368 q 238 715 126 721 q 272 636 254 681 q 500 749 344 749 q 713 485 711 749 q 712 410 713 460 q 711 330 711 361 q 713 254 711 299 q 718 182 714 210 q 729 127 722 154 q 748 87 736 100 q 778 74 760 74 q 823 109 808 74 q 836 189 838 144 q 824 272 835 233 z "},"":{"ha":800,"x_min":-18,"x_max":804,"o":"m 572 360 q 672 339 615 360 q 766 290 728 318 q 800 244 804 263 q 692 1 786 96 q 432 -93 597 -93 q 288 -68 350 -93 q 187 0 225 -43 q 130 98 149 43 q 108 218 111 153 q 106 503 106 353 l 19 503 q 19 715 -17 610 l 108 715 q 121 983 113 871 q 376 983 217 994 q 376 715 378 906 l 556 715 q 556 503 592 611 l 376 503 q 376 332 376 406 q 397 207 376 247 q 471 167 418 167 q 540 221 511 167 q 572 360 568 275 z "},"":{"ha":1107,"x_min":29,"x_max":1104,"o":"m 853 253 l 1085 293 q 1099 224 1096 267 q 1099 128 1103 181 q 1074 21 1094 75 q 1020 -78 1053 -33 q 928 -150 988 -122 q 792 -178 868 -178 q 464 160 508 -178 q 444 106 458 133 q 404 52 429 79 q 340 8 379 25 q 251 -8 300 -8 q 90 55 142 -8 q 33 235 38 118 q 31 302 32 261 q 31 385 31 343 q 31 472 31 428 q 31 556 31 517 q 32 628 32 596 q 33 678 32 660 l 33 696 q 321 696 193 726 l 321 356 q 331 223 321 258 q 375 188 342 188 q 446 404 446 188 l 446 696 q 733 696 585 726 l 733 239 q 750 97 732 139 q 807 54 768 54 q 852 90 838 54 q 865 169 867 125 q 853 253 864 214 z "},"":{"ha":1010,"x_min":-1,"x_max":1017,"o":"m 799 900 q 906 874 858 900 q 979 799 953 847 q 1010 688 1006 750 q 990 546 1015 625 q 907 388 964 467 q 711 475 769 419 q 757 556 740 508 q 768 639 774 603 q 732 675 763 675 q 663 626 696 675 q 603 494 631 576 q 553 325 576 411 q 501 143 529 239 q 451 -6 474 47 q 189 -6 304 -18 q -1 675 108 214 q 294 675 174 694 q 327 538 315 601 q 365 310 339 475 q 368 319 367 313 q 399 440 388 399 q 433 554 410 482 q 477 666 457 626 q 531 757 497 706 q 601 835 564 808 q 688 881 638 861 q 799 900 739 900 z "},"":{"ha":1421,"x_min":-3,"x_max":1426,"o":"m 1203 921 q 1318 890 1268 921 q 1394 806 1368 860 q 1423 688 1419 753 q 1399 549 1426 624 q 1315 408 1371 475 q 1119 496 1168 435 q 1164 576 1149 529 q 1172 660 1179 624 q 1135 696 1165 696 q 1058 639 1094 696 q 992 492 1021 582 q 939 311 963 401 q 894 133 915 221 q 860 15 872 46 q 636 15 738 0 q 529 351 563 218 q 515 292 524 324 q 499 235 507 261 q 481 175 492 208 q 463 121 469 142 q 443 65 456 100 q 425 15 431 31 q 189 15 292 4 q -1 696 108 235 q 294 696 169 725 q 308 649 300 675 q 322 606 317 622 q 333 565 326 590 q 344 515 339 540 q 358 452 350 490 q 372 367 365 414 q 444 696 417 603 q 690 696 589 725 q 767 363 731 572 q 807 545 786 468 q 863 697 828 622 q 943 817 899 771 q 1053 892 988 864 q 1203 921 1119 921 z "},"":{"ha":1036,"x_min":-7,"x_max":1042,"o":"m 824 900 q 931 874 883 900 q 1005 799 979 847 q 1035 688 1031 750 q 1015 546 1040 625 q 932 388 989 467 q 736 475 803 376 q 782 556 765 508 q 793 639 799 603 q 757 675 788 675 q 703 645 732 675 q 645 559 675 615 q 594 457 615 503 q 546 346 574 411 q 717 -7 685 78 q 394 -6 533 -14 q 308 153 339 74 q 231 -6 260 40 q -7 -6 138 -14 q 176 374 74 174 q 39 675 81 567 q 338 675 199 685 q 399 532 363 629 q 435 619 418 582 q 476 697 453 657 q 522 766 499 738 q 577 822 546 794 q 644 865 608 849 q 726 890 681 881 q 824 900 771 900 z "},"":{"ha":683,"x_min":15,"x_max":679,"o":"m 658 314 q 674 245 669 288 q 676 149 679 203 q 655 42 674 96 q 605 -56 636 -11 q 515 -129 574 -101 q 381 -157 457 -157 q 260 -142 314 -157 q 172 -105 207 -128 q 111 -46 138 -82 q 72 22 85 -10 q 50 99 58 54 q 39 173 42 143 q 36 243 36 203 q 38 718 28 571 q 292 718 161 725 q 303 219 303 525 q 306 167 303 189 q 316 122 308 144 q 340 87 324 99 q 381 75 356 75 q 426 110 411 75 q 439 190 440 146 q 426 274 438 235 l 658 314 m 167 790 q 60 829 104 790 q 17 923 17 868 q 60 1017 17 978 q 167 1056 104 1056 q 273 1017 229 1056 q 317 924 317 978 q 305 872 317 896 q 273 830 293 847 q 225 801 253 813 q 167 790 197 790 z "},"ﬀ":{"ha":1033,"x_min":-10,"x_max":1115,"o":"m 956 811 q 880 783 900 811 q 857 701 860 754 l 1024 701 q 1024 489 1040 604 l 854 489 q 845 231 851 386 q 838 24 839 75 q 583 24 679 13 q 578 489 568 221 l 376 489 q 367 231 374 386 q 360 24 361 75 q 106 24 201 13 q 99 489 89 232 l 22 489 q 22 701 -8 596 l 111 701 q 117 776 114 743 q 128 868 121 829 q 155 949 136 907 q 203 1016 174 990 q 281 1058 232 1042 q 396 1075 331 1075 q 474 1070 439 1075 q 524 1061 510 1065 l 539 1057 q 581 800 593 960 q 478 811 547 811 q 402 783 422 811 q 379 701 382 754 l 589 701 q 593 755 592 735 q 599 809 594 775 q 610 865 604 843 q 628 918 617 888 q 653 969 639 949 q 690 1010 668 989 q 739 1045 713 1032 q 802 1067 765 1058 q 882 1075 839 1075 q 994 1068 940 1075 q 1074 1054 1049 1061 l 1099 1047 q 1069 797 1114 872 q 956 811 1025 811 z "},"ﬁ":{"ha":860,"x_min":-7,"x_max":851,"o":"m 378 703 q 810 703 611 718 q 821 22 835 435 q 567 22 661 13 q 549 489 547 242 l 375 489 q 366 230 372 385 q 358 22 360 75 q 103 22 199 13 q 99 489 89 221 l 21 489 q 21 701 -7 592 l 110 701 q 114 776 113 743 q 138 874 118 825 q 196 970 158 924 q 297 1045 233 1017 q 442 1074 361 1074 q 649 1058 553 1074 q 788 1028 746 1043 l 828 1013 q 800 763 850 893 q 763 776 788 768 q 660 798 739 785 q 500 811 582 811 q 409 782 436 811 q 378 703 382 753 z "},"ﬂ":{"ha":929,"x_min":-8,"x_max":904,"o":"m 889 1007 q 885 24 904 432 q 629 24 763 14 q 628 808 617 268 q 546 813 585 813 q 419 784 454 813 q 379 704 383 756 l 544 704 q 544 492 563 614 l 375 492 q 366 233 372 388 q 358 25 360 78 q 104 25 200 14 q 99 492 89 222 l 21 492 q 21 704 -7 608 l 110 704 q 115 778 113 743 q 126 843 117 811 q 152 910 135 875 q 200 973 169 944 q 271 1026 231 1001 q 369 1063 311 1050 q 499 1076 428 1076 q 701 1059 604 1076 q 844 1024 799 1042 l 889 1007 z "},"ﬆ":{"ha":1154,"x_min":11,"x_max":1153,"o":"m 1096 272 q 1132 22 1153 174 q 926 0 1057 0 q 788 15 844 0 q 701 58 732 29 q 658 122 671 88 q 643 207 646 157 q 639 492 638 336 q 462 522 569 492 q 310 553 354 553 q 268 519 268 553 q 292 488 268 503 q 350 463 315 474 q 426 434 385 453 q 501 391 467 415 q 560 321 536 367 q 583 215 583 275 q 504 56 583 113 q 308 0 425 0 q 128 40 207 0 q 11 164 50 79 q 183 281 103 250 q 296 197 233 197 q 335 229 335 197 q 311 263 335 247 q 253 289 288 278 q 178 319 218 300 q 103 362 138 339 q 45 427 68 385 q 22 524 22 469 q 96 681 22 625 q 278 736 169 736 q 440 722 325 736 q 642 704 554 707 q 656 972 647 853 q 911 972 751 983 q 913 704 913 883 l 1090 704 q 1090 492 1124 601 l 913 492 q 913 369 913 431 q 915 323 913 339 q 925 290 917 307 q 953 265 933 272 q 1007 258 974 258 q 1053 262 1031 258 q 1086 269 1075 265 l 1096 272 z "}}}
